<svg id="Component_57_15" data-name="Component 57 – 15" xmlns="http://www.w3.org/2000/svg" xmlns:xlink="http://www.w3.org/1999/xlink" width="138.318" height="138.318" viewBox="0 0 138.318 138.318">
  <defs>
    <clipPath id="clip-path">
      <rect id="Rectangle_770" data-name="Rectangle 770" width="138.318" height="138.318" fill="none"/>
    </clipPath>
  </defs>
  <g id="Group_912" data-name="Group 912" clip-path="url(#clip-path)">
    <path id="Path_845" data-name="Path 845" d="M36.745,23.385l-13.36,13.36a2.533,2.533,0,0,1-3.58,0L7.69,24.629a1.018,1.018,0,0,1,0-1.44l15.5-15.5a1.019,1.019,0,0,1,1.441,0L36.745,19.805a2.531,2.531,0,0,1,0,3.58" fill="#91582b"/>
    <path id="Path_846" data-name="Path 846" d="M34.247,22.944l-11.3,11.3a2.2,2.2,0,0,1-3.111,0l-9.51-9.511a1,1,0,0,1,0-1.414l13-13a1,1,0,0,1,1.415,0l9.511,9.511a2.2,2.2,0,0,1,0,3.11" fill="#e84c3d"/>
    <path id="Path_847" data-name="Path 847" d="M10.5,21.686,8.626,23.563l-6.95-2.917,1.877-1.877Z" fill="#91582b"/>
    <path id="Path_848" data-name="Path 848" d="M21.685,10.5l1.877-1.877-2.917-6.95L18.768,3.553Z" fill="#91582b"/>
    <path id="Path_849" data-name="Path 849" d="M21.448,3.58,3.58,21.449a1.937,1.937,0,0,1-2.739,0l-.275-.275a1.94,1.94,0,0,1,0-2.738L18.436.567a1.936,1.936,0,0,1,2.738,0l.274.275a1.936,1.936,0,0,1,0,2.738" fill="#a76531"/>
    <path id="Path_850" data-name="Path 850" d="M101.573,114.933l13.36-13.36a2.533,2.533,0,0,1,3.58,0l12.115,12.116a1.018,1.018,0,0,1,0,1.44l-15.5,15.5a1.019,1.019,0,0,1-1.441,0l-12.115-12.115a2.531,2.531,0,0,1,0-3.58" fill="#91582b"/>
    <path id="Path_851" data-name="Path 851" d="M104.071,115.374l11.3-11.3a2.2,2.2,0,0,1,3.111,0l9.51,9.511A1,1,0,0,1,128,115l-13,13a1,1,0,0,1-1.415,0l-9.511-9.511a2.2,2.2,0,0,1,0-3.11" fill="#e84c3d"/>
    <path id="Path_852" data-name="Path 852" d="M127.815,116.632l1.877-1.877,6.95,2.917-1.877,1.877Z" fill="#91582b"/>
    <path id="Path_853" data-name="Path 853" d="M116.632,127.815l-1.877,1.877,2.917,6.95,1.877-1.877Z" fill="#91582b"/>
    <path id="Path_854" data-name="Path 854" d="M116.869,134.738l17.869-17.869a1.936,1.936,0,0,1,2.738,0l.275.275a1.937,1.937,0,0,1,0,2.737l-17.87,17.869a1.934,1.934,0,0,1-2.738,0l-.274-.274a1.936,1.936,0,0,1,0-2.738" fill="#a76531"/>
    <path id="Path_855" data-name="Path 855" d="M114.933,36.745l-13.36-13.36a2.533,2.533,0,0,1,0-3.58L113.688,7.69a1.02,1.02,0,0,1,1.442,0l15.5,15.5a1.021,1.021,0,0,1,0,1.441L118.512,36.745a2.529,2.529,0,0,1-3.579,0" fill="#91582b"/>
    <path id="Path_856" data-name="Path 856" d="M115.374,34.247l-11.3-11.3a2.2,2.2,0,0,1,0-3.111l9.511-9.51a1,1,0,0,1,1.414,0l13,13a1,1,0,0,1,0,1.415l-9.511,9.511a2.2,2.2,0,0,1-3.11,0" fill="#e84c3d"/>
    <path id="Path_857" data-name="Path 857" d="M116.632,10.5l-1.877-1.877,2.917-6.95,1.877,1.877Z" fill="#91582b"/>
    <path id="Path_858" data-name="Path 858" d="M127.815,21.686l1.877,1.877,6.95-2.917-1.877-1.877Z" fill="#91582b"/>
    <path id="Path_859" data-name="Path 859" d="M134.738,21.449,116.869,3.58a1.936,1.936,0,0,1,0-2.738l.274-.275a1.936,1.936,0,0,1,2.738,0l17.869,17.87a1.935,1.935,0,0,1,0,2.737l-.274.275a1.936,1.936,0,0,1-2.738,0" fill="#a76531"/>
    <path id="Path_860" data-name="Path 860" d="M23.385,101.573l13.36,13.36a2.533,2.533,0,0,1,0,3.58L24.629,130.628a1.019,1.019,0,0,1-1.441,0l-15.5-15.5a1.019,1.019,0,0,1,0-1.441l12.115-12.115a2.531,2.531,0,0,1,3.58,0" fill="#91582b"/>
    <path id="Path_861" data-name="Path 861" d="M22.943,104.071l11.3,11.3a2.2,2.2,0,0,1,0,3.111L24.735,128a1,1,0,0,1-1.414,0l-13-13a1,1,0,0,1,0-1.415l9.511-9.511a2.2,2.2,0,0,1,3.11,0" fill="#e84c3d"/>
    <path id="Path_862" data-name="Path 862" d="M21.685,127.815l1.877,1.877-2.917,6.95-1.877-1.877Z" fill="#91582b"/>
    <path id="Path_863" data-name="Path 863" d="M10.5,116.632l-1.877-1.877-6.95,2.917,1.877,1.877Z" fill="#91582b"/>
    <path id="Path_864" data-name="Path 864" d="M3.579,116.869l17.869,17.869a1.936,1.936,0,0,1,0,2.738l-.274.275a1.936,1.936,0,0,1-2.738,0L.567,119.881a1.937,1.937,0,0,1,0-2.737l.275-.275a1.935,1.935,0,0,1,2.737,0" fill="#a76531"/>
    <path id="Path_865" data-name="Path 865" d="M121.153,69.159A51.994,51.994,0,1,1,69.159,17.165a51.994,51.994,0,0,1,51.994,51.994" fill="#d1d1d1"/>
    <path id="Path_866" data-name="Path 866" d="M119.506,69.159A50.347,50.347,0,1,1,69.159,18.812a50.347,50.347,0,0,1,50.347,50.347" fill="#ededed"/>
  </g>
</svg>
