<svg id="Component_58_1" data-name="Component 58 – 1" xmlns="http://www.w3.org/2000/svg" xmlns:xlink="http://www.w3.org/1999/xlink" width="179.927" height="227.192" viewBox="0 0 179.927 227.192">
  <defs>
    <clipPath id="clip-path">
      <rect id="Rectangle_769" data-name="Rectangle 769" width="179.927" height="227.192" fill="none"/>
    </clipPath>
  </defs>
  <g id="Group_910" data-name="Group 910" clip-path="url(#clip-path)">
    <path id="Path_805" data-name="Path 805" d="M99.3,29.081H80.411a2.531,2.531,0,0,1-2.532-2.531V9.416A1.019,1.019,0,0,1,78.9,8.4h21.919a1.019,1.019,0,0,1,1.018,1.019V26.55A2.531,2.531,0,0,1,99.3,29.081" fill="#91582b"/>
    <path id="Path_806" data-name="Path 806" d="M97.85,27H81.865a2.2,2.2,0,0,1-2.2-2.2V11.352a1,1,0,0,1,1-1H99.049a1,1,0,0,1,1,1V24.8a2.2,2.2,0,0,1-2.2,2.2" fill="#e84c3d"/>
    <path id="Path_807" data-name="Path 807" d="M81.95,9.323H79.295L76.443,2.346H79.1Z" fill="#91582b"/>
    <path id="Path_808" data-name="Path 808" d="M97.765,9.323h2.655l2.852-6.977h-2.655Z" fill="#91582b"/>
    <path id="Path_809" data-name="Path 809" d="M102.493,4.26H77.221a1.936,1.936,0,0,1-1.936-1.936V1.936A1.936,1.936,0,0,1,77.221,0h25.272a1.936,1.936,0,0,1,1.935,1.936v.388a1.936,1.936,0,0,1-1.935,1.936" fill="#a76531"/>
    <path id="Path_810" data-name="Path 810" d="M99.3,198.111H80.411a2.532,2.532,0,0,0-2.532,2.531v17.134a1.019,1.019,0,0,0,1.019,1.019h21.919a1.018,1.018,0,0,0,1.018-1.019V200.642a2.531,2.531,0,0,0-2.531-2.531" fill="#91582b"/>
    <path id="Path_811" data-name="Path 811" d="M97.85,200.19H81.865a2.2,2.2,0,0,0-2.2,2.2V215.84a1,1,0,0,0,1,1H99.049a1,1,0,0,0,1-1V202.389a2.2,2.2,0,0,0-2.2-2.2" fill="#e84c3d"/>
    <path id="Path_812" data-name="Path 812" d="M81.95,217.869H79.295l-2.852,6.977H79.1Z" fill="#91582b"/>
    <path id="Path_813" data-name="Path 813" d="M97.765,217.869h2.655l2.852,6.977h-2.655Z" fill="#91582b"/>
    <path id="Path_814" data-name="Path 814" d="M102.492,222.932H77.221a1.936,1.936,0,0,0-1.936,1.936v.388a1.936,1.936,0,0,0,1.936,1.936h25.271a1.936,1.936,0,0,0,1.936-1.936v-.388a1.936,1.936,0,0,0-1.936-1.936" fill="#a76531"/>
    <rect id="Rectangle_768" data-name="Rectangle 768" width="109.52" height="156.863" transform="translate(35.097 34.623)" fill="#ededed"/>
    <path id="Path_815" data-name="Path 815" d="M150.846,64.413V45.521a2.531,2.531,0,0,1,2.531-2.532h17.134a1.019,1.019,0,0,1,1.019,1.019V65.926a1.019,1.019,0,0,1-1.019,1.019H153.377a2.531,2.531,0,0,1-2.531-2.532" fill="#91582b"/>
    <path id="Path_816" data-name="Path 816" d="M152.925,62.959V46.974a2.2,2.2,0,0,1,2.2-2.2h13.451a1,1,0,0,1,1,1V64.158a1,1,0,0,1-1,1H155.124a2.2,2.2,0,0,1-2.2-2.2" fill="#e84c3d"/>
    <path id="Path_817" data-name="Path 817" d="M170.6,47.059V44.4l6.977-2.852v2.655Z" fill="#91582b"/>
    <path id="Path_818" data-name="Path 818" d="M170.6,62.874v2.655l6.977,2.852V65.726Z" fill="#91582b"/>
    <path id="Path_819" data-name="Path 819" d="M175.667,67.6V42.331A1.936,1.936,0,0,1,177.6,40.4h.388a1.936,1.936,0,0,1,1.936,1.936V67.6a1.936,1.936,0,0,1-1.936,1.936H177.6a1.936,1.936,0,0,1-1.936-1.936" fill="#a76531"/>
    <path id="Path_820" data-name="Path 820" d="M150.846,119.518V100.625a2.532,2.532,0,0,1,2.531-2.532h17.134a1.019,1.019,0,0,1,1.019,1.019v21.919a1.019,1.019,0,0,1-1.019,1.018H153.377a2.531,2.531,0,0,1-2.531-2.531" fill="#91582b"/>
    <path id="Path_821" data-name="Path 821" d="M152.925,118.064V102.079a2.2,2.2,0,0,1,2.2-2.2h13.451a1,1,0,0,1,1,1v18.383a1,1,0,0,1-1,1H155.124a2.2,2.2,0,0,1-2.2-2.2" fill="#e84c3d"/>
    <path id="Path_822" data-name="Path 822" d="M170.6,102.164V99.509l6.977-2.852v2.655Z" fill="#91582b"/>
    <path id="Path_823" data-name="Path 823" d="M170.6,117.979v2.655l6.977,2.852v-2.655Z" fill="#91582b"/>
    <path id="Path_824" data-name="Path 824" d="M175.667,122.707V97.436A1.936,1.936,0,0,1,177.6,95.5h.388a1.936,1.936,0,0,1,1.936,1.936v25.271a1.936,1.936,0,0,1-1.936,1.936H177.6a1.936,1.936,0,0,1-1.936-1.936" fill="#a76531"/>
    <path id="Path_825" data-name="Path 825" d="M150.846,174.623V155.73a2.532,2.532,0,0,1,2.531-2.532h17.134a1.019,1.019,0,0,1,1.019,1.019v21.919a1.019,1.019,0,0,1-1.019,1.018H153.377a2.531,2.531,0,0,1-2.531-2.531" fill="#91582b"/>
    <path id="Path_826" data-name="Path 826" d="M152.925,173.169V157.184a2.2,2.2,0,0,1,2.2-2.2h13.451a1,1,0,0,1,1,1v18.383a1,1,0,0,1-1,1H155.124a2.2,2.2,0,0,1-2.2-2.2" fill="#e84c3d"/>
    <path id="Path_827" data-name="Path 827" d="M170.6,157.268v-2.655l6.977-2.852v2.655Z" fill="#91582b"/>
    <path id="Path_828" data-name="Path 828" d="M170.6,173.084v2.655l6.977,2.852v-2.655Z" fill="#91582b"/>
    <path id="Path_829" data-name="Path 829" d="M175.667,177.811V152.54A1.936,1.936,0,0,1,177.6,150.6h.388a1.936,1.936,0,0,1,1.936,1.936v25.271a1.936,1.936,0,0,1-1.936,1.936H177.6a1.936,1.936,0,0,1-1.936-1.936" fill="#a76531"/>
    <path id="Path_830" data-name="Path 830" d="M29.081,64.413V45.521a2.531,2.531,0,0,0-2.531-2.532H9.416A1.019,1.019,0,0,0,8.4,44.008V65.926a1.019,1.019,0,0,0,1.019,1.019H26.55a2.531,2.531,0,0,0,2.531-2.532" fill="#91582b"/>
    <path id="Path_831" data-name="Path 831" d="M27,62.959V46.974a2.2,2.2,0,0,0-2.2-2.2H11.352a1,1,0,0,0-1,1V64.158a1,1,0,0,0,1,1H24.8a2.2,2.2,0,0,0,2.2-2.2" fill="#e84c3d"/>
    <path id="Path_832" data-name="Path 832" d="M9.323,47.059V44.4L2.346,41.552v2.655Z" fill="#91582b"/>
    <path id="Path_833" data-name="Path 833" d="M9.323,62.874v2.655L2.346,68.381V65.726Z" fill="#91582b"/>
    <path id="Path_834" data-name="Path 834" d="M4.26,67.6V42.332A1.936,1.936,0,0,0,2.324,40.4H1.936A1.936,1.936,0,0,0,0,42.332V67.6a1.935,1.935,0,0,0,1.936,1.936h.388A1.936,1.936,0,0,0,4.26,67.6" fill="#a76531"/>
    <path id="Path_835" data-name="Path 835" d="M29.081,119.518V100.625a2.532,2.532,0,0,0-2.531-2.532H9.416A1.019,1.019,0,0,0,8.4,99.112v21.919a1.019,1.019,0,0,0,1.019,1.018H26.55a2.531,2.531,0,0,0,2.531-2.531" fill="#91582b"/>
    <path id="Path_836" data-name="Path 836" d="M27,118.064V102.079a2.2,2.2,0,0,0-2.2-2.2H11.352a1,1,0,0,0-1,1v18.383a1,1,0,0,0,1,1H24.8a2.2,2.2,0,0,0,2.2-2.2" fill="#e84c3d"/>
    <path id="Path_837" data-name="Path 837" d="M9.323,102.164V99.509L2.346,96.657v2.655Z" fill="#91582b"/>
    <path id="Path_838" data-name="Path 838" d="M9.323,117.979v2.655l-6.977,2.852v-2.655Z" fill="#91582b"/>
    <path id="Path_839" data-name="Path 839" d="M4.26,122.706V97.436A1.936,1.936,0,0,0,2.324,95.5H1.936A1.936,1.936,0,0,0,0,97.436v25.271a1.935,1.935,0,0,0,1.936,1.935h.388a1.936,1.936,0,0,0,1.936-1.936" fill="#a76531"/>
    <path id="Path_840" data-name="Path 840" d="M29.081,174.623V155.73A2.532,2.532,0,0,0,26.55,153.2H9.416A1.019,1.019,0,0,0,8.4,154.217v21.919a1.019,1.019,0,0,0,1.019,1.018H26.55a2.531,2.531,0,0,0,2.531-2.531" fill="#91582b"/>
    <path id="Path_841" data-name="Path 841" d="M27,173.169V157.184a2.2,2.2,0,0,0-2.2-2.2H11.352a1,1,0,0,0-1,1v18.383a1,1,0,0,0,1,1H24.8a2.2,2.2,0,0,0,2.2-2.2" fill="#e84c3d"/>
    <path id="Path_842" data-name="Path 842" d="M9.323,157.268v-2.655l-6.977-2.852v2.655Z" fill="#91582b"/>
    <path id="Path_843" data-name="Path 843" d="M9.323,173.084v2.655l-6.977,2.852v-2.655Z" fill="#91582b"/>
    <path id="Path_844" data-name="Path 844" d="M4.26,177.811v-25.27A1.936,1.936,0,0,0,2.324,150.6H1.936A1.936,1.936,0,0,0,0,152.541v25.271a1.935,1.935,0,0,0,1.936,1.935h.388a1.936,1.936,0,0,0,1.936-1.936" fill="#a76531"/>
  </g>
</svg>
