<svg id="FTLogo" xmlns="http://www.w3.org/2000/svg" xmlns:xlink="http://www.w3.org/1999/xlink" width="124.169" height="30.904" viewBox="0 0 124.169 30.904">
  <defs>
    <clipPath id="clip-path">
      <rect id="Rectangle_150" data-name="Rectangle 150" width="124.169" height="30.904" fill="none"/>
    </clipPath>
  </defs>
  <g id="Group_78" data-name="Group 78" clip-path="url(#clip-path)">
    <path id="Path_207" data-name="Path 207" d="M20.061,1.844a.837.837,0,0,1,.931.854.855.855,0,0,1-.829.881.793.793,0,0,1-.1,0H8.924V9.933h9.253a.843.843,0,0,1,.928.749.833.833,0,0,1,0,.127.824.824,0,0,1-.931.854H8.924v6.617a.919.919,0,0,1-.8,1.027.907.907,0,0,1-.16.006c-.594,0-.932-.386-.932-1.03V2.878A.933.933,0,0,1,8.045,1.844Z" transform="translate(-4.964 -1.298)" fill="#132853"/>
    <path id="Path_208" data-name="Path 208" d="M164.446.958V17.446a.839.839,0,0,1-.878.956.856.856,0,0,1-.906-.8.838.838,0,0,1,0-.153V16.232h-.053a5.661,5.661,0,0,1-4.937,2.325c-3.722,0-6.228-2.586-6.228-6.461s2.508-6.461,6.228-6.461a5.66,5.66,0,0,1,4.937,2.326h.053v-7a.846.846,0,0,1,.726-.951A.857.857,0,0,1,163.567,0c.566,0,.879.336.879.956M162.664,12.1a4.706,4.706,0,1,0-9.408,0,4.706,4.706,0,1,0,9.407,0Z" transform="translate(-106.951 0)" fill="#132853"/>
    <path id="Path_209" data-name="Path 209" d="M233.844,20.562a4.267,4.267,0,0,1-4.083,2.22c-2.791,0-4.522-1.81-4.522-4.807V6.943a.851.851,0,0,1,.879-.956.869.869,0,0,1,.906.831.879.879,0,0,1,0,.125v3.23H232.4a.77.77,0,0,1,.872.653.794.794,0,0,1-.872.95H227.02V18c0,2.041,1.059,3.179,2.845,3.179a2.656,2.656,0,0,0,2.559-1.5.79.79,0,0,1,.724-.438.8.8,0,0,1,.8.8c0,.017,0,.033,0,.05a1.157,1.157,0,0,1-.1.466" transform="translate(-159.057 -4.227)" fill="#132853"/>
    <path id="Path_210" data-name="Path 210" d="M268.416,19.552a.814.814,0,0,1-.744.878.861.861,0,0,1-.135,0c-2.919,0-4.548,1.782-4.548,5.4v4.6a.851.851,0,0,1-.879.956.867.867,0,0,1-.9-.956v-10.7a.844.844,0,0,1,.722-.951.834.834,0,0,1,.18-.005c.568,0,.879.336.879.956v1.395h.053a4.735,4.735,0,0,1,4.5-2.429.794.794,0,0,1,.877.7.805.805,0,0,1,0,.152Z" transform="translate(-184.457 -13.201)" fill="#132853"/>
    <path id="Path_211" data-name="Path 211" d="M299.648,19.55v10.7a.839.839,0,0,1-.879.956.856.856,0,0,1-.906-.8.833.833,0,0,1,0-.153V29.033h-.053a5.661,5.661,0,0,1-4.936,2.326c-3.723,0-6.228-2.586-6.228-6.461s2.508-6.462,6.228-6.462a5.659,5.659,0,0,1,4.936,2.326h.053V19.547a.846.846,0,0,1,.9-.956c.566,0,.879.338.879.959m-1.783,5.35a4.706,4.706,0,1,0-9.408,0,4.706,4.706,0,1,0,9.407,0Z" transform="translate(-202.429 -13.019)" fill="#132853"/>
    <path id="Path_212" data-name="Path 212" d="M350.729,24.836a6.2,6.2,0,0,1-3,4.752,6.187,6.187,0,0,1-8.991-1.833,6.172,6.172,0,0,1,1.9-8.975,6.49,6.49,0,0,1,5.14-1.023.813.813,0,0,1,.486.363.794.794,0,0,1-.145,1.113.816.816,0,0,1-.078.053.961.961,0,0,1-.767.1,4.787,4.787,0,0,0-3.754.73,4.546,4.546,0,0,0-1.269,6.642,4.546,4.546,0,0,0,6.6,1.483,4.619,4.619,0,0,0,2.22-3.588.81.81,0,0,1,.377-.555.789.789,0,0,1,1.1.172c.015.021.03.043.043.066a.85.85,0,0,1,.139.5Z" transform="translate(-238.382 -12.431)" fill="#132853"/>
    <path id="Path_213" data-name="Path 213" d="M385.21,19.627a.8.8,0,1,1,.864,1.355.827.827,0,0,1-.129.067l-8.63,4.467a.872.872,0,0,1-1.212-.221.888.888,0,0,1-.064-.108,1.274,1.274,0,0,1-.037-.971l3.3-11.779-6.655,3.444a.784.784,0,0,1-1.148-.308.77.77,0,0,1,.277-1.054.758.758,0,0,1,.134-.062l8.171-4.232a.848.848,0,0,1,1.186.175.823.823,0,0,1,.056.085,1.141,1.141,0,0,1,.025,1L378.094,23.3l7.114-3.681Z" transform="translate(-262.277 -7.101)" fill="#132853"/>
    <path id="Path_214" data-name="Path 214" d="M59.25,20.4a5.84,5.84,0,1,1-5.841,5.841A5.841,5.841,0,0,1,59.25,20.4" transform="translate(-37.717 -14.409)" fill="#ef5527"/>
    <path id="Path_215" data-name="Path 215" d="M108.962,20.982a5.754,5.754,0,1,1-5.754,5.754,5.754,5.754,0,0,1,5.754-5.754" transform="translate(-72.885 -14.817)" fill="#fbb038"/>
    <path id="Path_216" data-name="Path 216" d="M59.28,32.019a2.24,2.24,0,0,1,.764-1.12,47.11,47.11,0,0,0,3.608-3.921c.283-.342.187-.591.152-1a2.443,2.443,0,0,1,.34-1.457,4.012,4.012,0,0,1,1.132-1.18,2.484,2.484,0,0,1,.931-.47,1.077,1.077,0,0,1,.972.237,1.268,1.268,0,0,1,.338.9,2.783,2.783,0,0,1-.2.971A4.832,4.832,0,0,1,66.2,26.805a1.664,1.664,0,0,1-.933.47c-.356.037-.737-.239-1.064-.041a1.586,1.586,0,0,0-.416.438q-1.293,1.78-2.582,3.56c-.228.315-1.356,2.29-1.787,1.488a1.056,1.056,0,0,1-.132-.7Z" transform="translate(-41.858 -16.129)" fill="#fff"/>
    <path id="Path_217" data-name="Path 217" d="M110.147,32.781l1.862-1.949.391-.541.112-.774.039-.621,4.631-5.8-.03-.555-.262-.365-.555-.05-.168.23L112,28.41l-.427.278-.842.39-1.787,2.833.133.092.782-.984.8-1.041.278.187-1.515,2.081.064.155h.146l.943-1.228.651-.8.3.2-1.508,2.113Z" transform="translate(-76.937 -15.623)" fill="#fff"/>
    <path id="Path_218" data-name="Path 218" d="M4.129,78.447a1.741,1.741,0,0,1-1.373.612,1.77,1.77,0,0,1-1.234-.482,1.61,1.61,0,0,1-.947.39c-.334,0-.575-.2-.575-.418a.3.3,0,0,1,.3-.315.223.223,0,0,1,.223.2.123.123,0,0,0,.139.139,1.166,1.166,0,0,0,.631-.269,1.334,1.334,0,0,1-.26-.742.673.673,0,0,1,.64-.752,1.772,1.772,0,0,1,.752.223,12.469,12.469,0,0,0,1.077-1.9,3.611,3.611,0,0,1-.418-1.364c0-.705.408-1.021.789-1.021a.6.6,0,0,1,.622.631,4.849,4.849,0,0,1-.482,1.661,5.074,5.074,0,0,1,.584,1.949,2.471,2.471,0,0,1-.269,1.169,1.216,1.216,0,0,0,.353.056.682.682,0,0,0,.65-.334c.065-.093.111-.158.186-.158a.217.217,0,0,1,.186.185.35.35,0,0,1-.093.214,1.037,1.037,0,0,1-.909.436,1.571,1.571,0,0,1-.566-.111m-1.93-1.1a1.012,1.012,0,0,0-.427-.158c-.157,0-.3.13-.3.371a.936.936,0,0,0,.148.464,7.233,7.233,0,0,0,.575-.677m-.353.956a1.353,1.353,0,0,0,.946.38,1.1,1.1,0,0,0,.891-.418c-.4-.213-.8-.5-1.141-.724a6.23,6.23,0,0,1-.7.761m2.023-.343a2.283,2.283,0,0,0,.195-.993,3.563,3.563,0,0,0-.343-1.317,12.771,12.771,0,0,1-.956,1.6c.371.232.742.51,1.1.714m-.093-3.461a3.719,3.719,0,0,0,.278-1.1c0-.148-.056-.26-.185-.26s-.3.158-.3.547a2.332,2.332,0,0,0,.2.817" transform="translate(0 -51.375)" fill="#132853"/>
    <path id="Path_219" data-name="Path 219" d="M17.035,80.426a17.029,17.029,0,0,1,.139-1.865H16.84c-.139,0-.167-.056-.167-.139s.111-.315.232-.315c.074,0,.195,0,.325.009.046-.325.093-.622.148-.845.056-.26.111-.353.214-.353.176,0,.482.2.482.408,0,.075-.12.251-.195.5l-.083.3h.325a1.369,1.369,0,0,0,.566-.093c.1,0,.26.185.26.306s-.371.213-.826.213h-.4a12.672,12.672,0,0,0-.111,1.819c0,1,.232,1.141.547,1.141s.622-.445.8-.687c.065-.093.111-.158.186-.158a.217.217,0,0,1,.186.186.349.349,0,0,1-.093.213c-.232.325-.622.863-1.225.863-.557,0-.974-.343-.974-1.5" transform="translate(-11.774 -54.319)" fill="#132853"/>
    <path id="Path_220" data-name="Path 220" d="M26.08,83.437c0-.482.232-1.021.232-1.271,0-.139-.056-.167-.232-.167a2.413,2.413,0,0,1-.371-.028,12.665,12.665,0,0,1-.715,1.178c-.13.2-.232.353-.334.353a.159.159,0,0,1-.158-.167c0-.121.056-.2.186-.4.195-.288.445-.7.65-1.076a.842.842,0,0,1-.576-.724.753.753,0,0,1,.724-.807c.38,0,.622.2.622.538a1.9,1.9,0,0,1-.186.65,3.3,3.3,0,0,0,.445.019c.325,0,.548.1.548.334,0,.482-.242,1.114-.242,1.522a.357.357,0,0,0,.371.4c.325,0,.585-.315.761-.556.065-.093.111-.158.185-.158a.217.217,0,0,1,.186.186.35.35,0,0,1-.093.213c-.232.325-.6.8-1.123.8a.837.837,0,0,1-.881-.835m-.538-2.013a1.268,1.268,0,0,0,.1-.427c0-.139-.074-.214-.185-.214s-.214.121-.214.3c0,.148.1.26.3.343" transform="translate(-17.304 -56.728)" fill="#132853"/>
    <path id="Path_221" data-name="Path 221" d="M35.775,84.723c0-1.039.705-1.93,1.3-1.93.427,0,.584.2.584.566A2.7,2.7,0,0,1,36.49,85.15c.056.316.3.51.742.51a1.428,1.428,0,0,0,1.086-.687c.065-.093.111-.157.185-.157a.216.216,0,0,1,.186.185.351.351,0,0,1-.093.214,1.784,1.784,0,0,1-1.457.854,1.271,1.271,0,0,1-1.364-1.345m1.383-1.346c0-.111-.046-.158-.13-.158-.213,0-.631.761-.631,1.429a1.734,1.734,0,0,0,.761-1.271" transform="translate(-25.264 -58.468)" fill="#132853"/>
    <path id="Path_222" data-name="Path 222" d="M47.5,84.929c.065-.093.111-.158.185-.158a.217.217,0,0,1,.186.186.348.348,0,0,1-.093.213C47.547,85.5,47.2,86,46.7,86c-.8,0-.826-1.1-.826-1.1S45.2,86,44.568,86c-.464,0-.677-.483-.677-.909,0-1.429.918-2.357,1.494-2.357a.667.667,0,0,1,.7.52c.009-.019.214-.38.455-.38.158,0,.232.12.232.269,0,.214-.353.39-.353,1.188,0,.64.046,1.215.362,1.215s.547-.371.724-.612m-3.044.083c0,.3.056.529.288.529.278,0,1.03-1.114,1.03-1.225s-.13-.139-.13-.278.112-.223.112-.362c0-.325-.065-.529-.306-.529-.325,0-.993.742-.993,1.865" transform="translate(-30.995 -58.423)" fill="#132853"/>
    <path id="Path_223" data-name="Path 223" d="M60.4,85.241c0-.436.158-1.151.158-1.457,0-.149-.037-.251-.2-.251-.408,0-1.141,1.364-1.141,1.958a.326.326,0,0,1-.353.334c-.176,0-.269-.139-.269-.371s.2-1.345.2-1.707c0-.278-.056-.371-.241-.371-.455,0-1.271,1.188-1.41,1.819s-.176.965-.445.965c-.195,0-.269-.121-.269-.371s.037-1.457.037-2.477c0-.3.121-.408.306-.408.288,0,.39.12.39.371s-.074.9-.083.955c.046-.074.807-1.373,1.624-1.373.557,0,.659.418.659.779a4.167,4.167,0,0,1-.037.445s.538-1.039,1.215-1.039a.585.585,0,0,1,.631.659c0,.427-.157,1.114-.157,1.476,0,.315.1.455.315.455.232,0,.5-.371.678-.612.065-.093.111-.158.185-.158a.217.217,0,0,1,.186.186.35.35,0,0,1-.093.213c-.232.325-.575.826-1.076.826a.774.774,0,0,1-.807-.844" transform="translate(-39.848 -58.512)" fill="#132853"/>
    <path id="Path_224" data-name="Path 224" d="M75.308,78.233c0-2.784.584-3.777,1.049-3.777.371,0,.556.278.556.854a9.991,9.991,0,0,1-.983,3.424c0,.371.278.965.817.965.38,0,.64-.371.816-.612.065-.093.111-.158.186-.158a.217.217,0,0,1,.186.186.35.35,0,0,1-.093.213c-.232.325-.575.826-1.114.826-.705,0-1.42-.594-1.42-1.921m.529-.186a9.172,9.172,0,0,0,.613-2.793c0-.13-.037-.232-.112-.232-.195,0-.5,1.206-.5,3.025" transform="translate(-53.182 -52.58)" fill="#132853"/>
    <path id="Path_225" data-name="Path 225" d="M82.539,80.6c0-.956.213-1.837.464-1.837a.346.346,0,0,1,.362.38,5.2,5.2,0,0,0-.279,1.336c0,.761.269,1.086.548,1.086.325,0,.677-.408.854-.65.065-.093.111-.158.186-.158a.217.217,0,0,1,.185.186.35.35,0,0,1-.093.213c-.232.325-.668.9-1.141.9-.631,0-1.086-.5-1.086-1.457m1.243-3.127a.513.513,0,0,1-.51.473.374.374,0,0,1-.38-.371.473.473,0,0,1,.427-.529.428.428,0,0,1,.464.427" transform="translate(-58.288 -54.408)" fill="#132853"/>
    <path id="Path_226" data-name="Path 226" d="M90.855,85.346c0-.6.25-1.281.25-1.568,0-.139-.046-.185-.148-.185-.371,0-1.327,1.336-1.54,1.893-.167.436-.241.613-.445.613a.284.284,0,0,1-.306-.325c0-.195.12-2.023.12-2.348s.028-.473.232-.473c.232,0,.371.2.371.566s-.028,1.178-.028,1.2c.046-.083.984-1.7,1.856-1.7a.515.515,0,0,1,.529.519c0,.575-.325,1.281-.325,1.8,0,.316.13.417.38.417.325,0,.668-.427.844-.668.065-.093.111-.157.186-.157a.216.216,0,0,1,.185.185.349.349,0,0,1-.093.214c-.232.325-.7.891-1.244.891a.822.822,0,0,1-.826-.872" transform="translate(-62.614 -58.58)" fill="#132853"/>
    <path id="Path_227" data-name="Path 227" d="M101.926,84.723c0-1.039.705-1.93,1.3-1.93.427,0,.584.2.584.566a2.7,2.7,0,0,1-1.169,1.791c.056.316.3.51.742.51a1.428,1.428,0,0,0,1.086-.687c.065-.093.111-.157.185-.157a.216.216,0,0,1,.186.185.351.351,0,0,1-.093.214,1.784,1.784,0,0,1-1.457.854,1.271,1.271,0,0,1-1.364-1.345m1.383-1.346c0-.111-.046-.158-.13-.158-.213,0-.631.761-.631,1.429a1.734,1.734,0,0,0,.761-1.271" transform="translate(-71.979 -58.468)" fill="#132853"/>
    <path id="Path_228" data-name="Path 228" d="M120.866,86.452a10.708,10.708,0,0,0,.093-1.364s-.7.956-1.383.956c-.64,0-.779-.529-.779-1.123a7.528,7.528,0,0,1,.325-1.837c.065-.2.13-.26.26-.26a.4.4,0,0,1,.371.436,8.036,8.036,0,0,0-.371,1.633c0,.38.111.6.353.6a1.913,1.913,0,0,0,1.1-1.03,3.567,3.567,0,0,0,.315-1.225c.009-.223.1-.353.232-.353a.444.444,0,0,1,.4.483c0,.288-.186.779-.186,1.3A10.317,10.317,0,0,1,121.516,86a5.722,5.722,0,0,0,1.012-1c.065-.093.111-.158.185-.158a.217.217,0,0,1,.186.185.35.35,0,0,1-.093.214,6.431,6.431,0,0,1-1.364,1.29c-.278,1.633-.918,2.867-1.707,2.867a.914.914,0,0,1-.946-.826c0-.742,1.03-1.4,2.078-2.116m-.083.557c-.816.594-1.5,1.123-1.5,1.559,0,.288.167.371.418.371.492,0,.881-.826,1.086-1.93" transform="translate(-83.887 -58.49)" fill="#132853"/>
    <path id="Path_229" data-name="Path 229" d="M133,85.718a1.164,1.164,0,0,1-.872.408,1.192,1.192,0,0,1-1.215-1.281,1.84,1.84,0,0,1,.5-1.327.933.933,0,0,1,.909-.631c.761,0,1.169.715,1.169,1.531a2.1,2.1,0,0,1-.242.947h.111a.65.65,0,0,0,.566-.325c.065-.093.111-.158.186-.158a.216.216,0,0,1,.185.185.351.351,0,0,1-.093.214,1.024,1.024,0,0,1-.928.455,2.764,2.764,0,0,1-.278-.019m-.482-.148a2.009,2.009,0,0,1-1.049-1.123,1.937,1.937,0,0,0-.046.427.732.732,0,0,0,.705.817.743.743,0,0,0,.39-.121m.278-.316a1.609,1.609,0,0,0,.195-.8c0-.724-.278-1.169-.659-1.169a.512.512,0,0,0-.51.575,1.564,1.564,0,0,0,.974,1.392" transform="translate(-92.45 -58.535)" fill="#132853"/>
    <path id="Path_230" data-name="Path 230" d="M143.714,84.409c-.362.557-1,1.457-1.605,1.457-.343,0-.65-.26-.65-.789a12.5,12.5,0,0,1,.251-1.967c.046-.288.1-.408.26-.408.185,0,.371.2.371.52s-.334,1.28-.334,1.679c0,.278.084.39.279.39s.854-.659,1.123-1.151a6.709,6.709,0,0,0,.5-1.169c.093-.3.149-.4.288-.4a.4.4,0,0,1,.362.436c0,.288-.334.752-.334,1.169,0,.557.111,1.253.445,1.253.306,0,.575-.371.752-.612.065-.093.111-.158.186-.158a.216.216,0,0,1,.185.186.35.35,0,0,1-.093.213c-.232.325-.6.8-1.1.8-.649,0-.844-.668-.881-1.448" transform="translate(-99.897 -58.312)" fill="#132853"/>
    <path id="Path_231" data-name="Path 231" d="M156.581,83.437c0-.482.232-1.021.232-1.271,0-.139-.056-.167-.232-.167a2.413,2.413,0,0,1-.371-.028,12.668,12.668,0,0,1-.715,1.178c-.13.2-.232.353-.334.353a.159.159,0,0,1-.158-.167c0-.121.056-.2.186-.4.195-.288.445-.7.649-1.076a.842.842,0,0,1-.575-.724.753.753,0,0,1,.724-.807c.38,0,.622.2.622.538a1.9,1.9,0,0,1-.186.65,3.3,3.3,0,0,0,.445.019c.325,0,.548.1.548.334,0,.482-.242,1.114-.242,1.522a.357.357,0,0,0,.371.4c.325,0,.585-.315.761-.556.065-.093.111-.158.186-.158a.217.217,0,0,1,.186.186.35.35,0,0,1-.093.213c-.232.325-.6.8-1.123.8a.837.837,0,0,1-.881-.835m-.538-2.013a1.268,1.268,0,0,0,.1-.427c0-.139-.074-.214-.185-.214s-.214.121-.214.3c0,.148.1.26.3.343" transform="translate(-109.462 -56.728)" fill="#132853"/>
    <path id="Path_232" data-name="Path 232" d="M175.585,79.328c-.186-.065-.269-.13-.269-.269,0-.158.158-.242.334-.242a1.576,1.576,0,0,0,.974-1.132.146.146,0,0,0-.158-.157c-.38,0-1.021.891-1.243,1.28a1.632,1.632,0,0,0-.176.77c0,.158.028.306.028.39a.305.305,0,0,1-.334.279c-.167,0-.223-.1-.223-.343s.074-1.522.074-2.375c0-2.153.316-2.914.91-2.914.38,0,.622.288.622.761a5.955,5.955,0,0,1-1.04,2.756l-.028.306c.037-.065.807-1.346,1.568-1.346a.522.522,0,0,1,.538.576c0,.64-.8,1.253-1.16,1.419,0,0,.371.575.863.575a.849.849,0,0,0,.7-.464c.065-.093.111-.157.186-.157a.217.217,0,0,1,.185.185.35.35,0,0,1-.093.214,1.176,1.176,0,0,1-1.021.659,1.655,1.655,0,0,1-1.234-.77m-.529-1.837a6.041,6.041,0,0,0,.6-2.153c0-.157-.074-.278-.177-.278-.408,0-.427,2.245-.427,2.431" transform="translate(-123.243 -52.692)" fill="#132853"/>
    <path id="Path_233" data-name="Path 233" d="M185.063,80.6c0-.956.213-1.837.464-1.837a.346.346,0,0,1,.362.38,5.209,5.209,0,0,0-.278,1.336c0,.761.269,1.086.547,1.086.325,0,.677-.408.854-.65.065-.093.111-.158.185-.158a.217.217,0,0,1,.186.186.35.35,0,0,1-.093.213c-.232.325-.668.9-1.141.9-.631,0-1.086-.5-1.086-1.457m1.244-3.127a.514.514,0,0,1-.51.473.374.374,0,0,1-.38-.371.473.473,0,0,1,.426-.529.429.429,0,0,1,.465.427" transform="translate(-130.69 -54.408)" fill="#132853"/>
    <path id="Path_234" data-name="Path 234" d="M190.92,80.426a16.975,16.975,0,0,1,.14-1.865h-.334c-.139,0-.167-.056-.167-.139s.111-.315.232-.315c.074,0,.195,0,.325.009.046-.325.093-.622.149-.845.056-.26.111-.353.214-.353.176,0,.482.2.482.408,0,.075-.12.251-.195.5l-.083.3h.325a1.371,1.371,0,0,0,.566-.093c.1,0,.26.185.26.306s-.371.213-.826.213h-.4a12.632,12.632,0,0,0-.111,1.819c0,1,.232,1.141.547,1.141s.622-.445.8-.687c.065-.093.111-.158.186-.158a.217.217,0,0,1,.185.186.349.349,0,0,1-.093.213c-.232.325-.622.863-1.225.863-.557,0-.975-.343-.975-1.5" transform="translate(-134.57 -54.319)" fill="#132853"/>
    <path id="Path_235" data-name="Path 235" d="M200.435,84.974c.065-.093.112-.158.186-.158a.217.217,0,0,1,.186.186.349.349,0,0,1-.093.213,1.805,1.805,0,0,1-1.476.9,1.359,1.359,0,0,1-1.355-1.4c0-1.16.566-1.921,1.29-1.921a.753.753,0,0,1,.77.826c0,.26-.13.418-.325.418a.287.287,0,0,1-.3-.251c0-.13.093-.186.093-.3a.257.257,0,0,0-.251-.269c-.279,0-.724.557-.724,1.494,0,.668.353.984.9.984a1.41,1.41,0,0,0,1.095-.724" transform="translate(-139.743 -58.468)" fill="#132853"/>
    <path id="Path_236" data-name="Path 236" d="M208.908,78.741c0-.427.074-1.206.074-1.42,0-.186-.037-.259-.176-.259-.38,0-1.262,1.466-1.392,2.134-.111.585-.213.65-.417.65-.148,0-.232-.139-.232-.362,0-.056-.009-.956-.009-1.782,0-1.818.14-4.036,1.077-4.036.362,0,.641.26.641.826a10.542,10.542,0,0,1-1.178,3.6l-.019.362c.037-.093.918-1.93,1.7-1.93.418,0,.594.232.594.659,0,.576-.074,1.077-.074,1.429,0,.315.121.529.4.529.4,0,.659-.371.835-.613.065-.093.112-.157.186-.157a.216.216,0,0,1,.186.185.35.35,0,0,1-.093.214,1.529,1.529,0,0,1-1.206.826.818.818,0,0,1-.891-.854m-1.642-1.29a9.42,9.42,0,0,0,.752-2.96c0-.2-.074-.315-.2-.315-.371,0-.547,1.865-.547,3.275" transform="translate(-146.009 -52.022)" fill="#132853"/>
    <path id="Path_237" data-name="Path 237" d="M219.355,84.723c0-1.039.705-1.93,1.3-1.93.427,0,.585.2.585.566a2.7,2.7,0,0,1-1.169,1.791c.056.316.3.51.742.51a1.428,1.428,0,0,0,1.086-.687c.065-.093.111-.157.185-.157a.217.217,0,0,1,.186.185.349.349,0,0,1-.093.214,1.782,1.782,0,0,1-1.456.854,1.271,1.271,0,0,1-1.364-1.345m1.383-1.346c0-.111-.046-.158-.13-.158-.213,0-.631.761-.631,1.429a1.734,1.734,0,0,0,.761-1.271" transform="translate(-154.906 -58.468)" fill="#132853"/>
    <path id="Path_238" data-name="Path 238" d="M230.323,85.346c0-.6.251-1.281.251-1.568,0-.139-.046-.185-.148-.185-.371,0-1.327,1.336-1.54,1.893-.167.436-.242.613-.446.613a.284.284,0,0,1-.306-.325c0-.195.121-2.023.121-2.348s.028-.473.232-.473c.231,0,.371.2.371.566s-.028,1.178-.028,1.2c.046-.083.984-1.7,1.855-1.7a.515.515,0,0,1,.529.519c0,.575-.325,1.281-.325,1.8,0,.316.13.417.381.417.325,0,.668-.427.844-.668.065-.093.112-.157.186-.157a.216.216,0,0,1,.185.185.348.348,0,0,1-.093.214c-.232.325-.7.891-1.243.891a.823.823,0,0,1-.826-.872" transform="translate(-161.105 -58.58)" fill="#132853"/>
    <path id="Path_239" data-name="Path 239" d="M243.924,90.915c0,.408-.51,1.058-.761,1.058-.139,0-.158-.093-.158-.186s.269-.241.269-.52c0-.176-.148-.269-.148-.427a.424.424,0,0,1,.408-.436c.269,0,.39.157.39.51" transform="translate(-171.609 -63.843)" fill="#132853"/>
    <path id="Path_240" data-name="Path 240" d="M257.106,86.088a1.537,1.537,0,0,1-1.058.436,1.842,1.842,0,0,1-.872-.185c0,1.54.093,1.772.093,2.088a.341.341,0,0,1-.362.362c-.2,0-.251-.148-.251-.566,0-.576.037-2.125.074-3.257.028-.854.074-1.494.074-1.577,0-.2.074-.278.186-.278.185,0,.4.139.4.325a8.076,8.076,0,0,1-.1.928,6.186,6.186,0,0,0-.047.854c.223-.51,1.2-2.06,1.8-2.06s.77.547.77,1.012a3.036,3.036,0,0,1-.371,1.485h.083a1.215,1.215,0,0,0,.956-.455c.065-.093.112-.158.186-.158a.217.217,0,0,1,.185.186.351.351,0,0,1-.093.213,1.605,1.605,0,0,1-1.253.668c-.139,0-.269-.009-.4-.019m-.705-.148a5.122,5.122,0,0,1-.974-.381.527.527,0,0,0-.028.167c.009.186.148.353.51.353a.969.969,0,0,0,.492-.139m.427-.371a2.128,2.128,0,0,0,.455-1.336c0-.288-.083-.511-.306-.511-.343,0-1.262,1.373-1.262,1.448a3.2,3.2,0,0,0,1.113.4" transform="translate(-179.836 -58.691)" fill="#132853"/>
    <path id="Path_241" data-name="Path 241" d="M269.307,83.437c0-.482.232-1.021.232-1.271,0-.139-.055-.167-.232-.167a2.421,2.421,0,0,1-.372-.028,12.679,12.679,0,0,1-.714,1.178c-.13.2-.232.353-.334.353a.159.159,0,0,1-.158-.167c0-.121.056-.2.186-.4.195-.288.445-.7.649-1.076a.842.842,0,0,1-.575-.724.753.753,0,0,1,.724-.807c.381,0,.622.2.622.538a1.9,1.9,0,0,1-.185.65,3.3,3.3,0,0,0,.445.019c.325,0,.547.1.547.334,0,.482-.241,1.114-.241,1.522a.357.357,0,0,0,.371.4c.325,0,.585-.315.761-.556.065-.093.111-.158.186-.158a.217.217,0,0,1,.186.186.349.349,0,0,1-.093.213c-.232.325-.6.8-1.123.8a.837.837,0,0,1-.881-.835m-.539-2.013a1.269,1.269,0,0,0,.1-.427c0-.139-.074-.214-.186-.214s-.213.121-.213.3c0,.148.1.26.3.343" transform="translate(-189.068 -56.728)" fill="#132853"/>
    <path id="Path_242" data-name="Path 242" d="M279,84.723c0-1.039.705-1.93,1.3-1.93.427,0,.585.2.585.566a2.7,2.7,0,0,1-1.169,1.791c.056.316.3.51.742.51a1.429,1.429,0,0,0,1.086-.687c.065-.093.111-.157.185-.157a.217.217,0,0,1,.186.185.349.349,0,0,1-.093.214,1.782,1.782,0,0,1-1.456.854A1.271,1.271,0,0,1,279,84.723m1.383-1.346c0-.111-.046-.158-.13-.158-.213,0-.631.761-.631,1.429a1.734,1.734,0,0,0,.761-1.271" transform="translate(-197.028 -58.468)" fill="#132853"/>
    <path id="Path_243" data-name="Path 243" d="M288.917,85.124c-.149.251-.752.937-.974.937a.48.48,0,0,1-.483-.492,21.209,21.209,0,0,0-.251-2.44c0-.241.065-.4.316-.4.2,0,.3.139.3.519,0,.306.167,2.273.167,2.273a3.364,3.364,0,0,0,.733-.993c0-.993.25-1.67.649-1.67.316,0,.445.158.445.4a4.2,4.2,0,0,1-.65,1.485,1.037,1.037,0,0,0,.854.482.579.579,0,0,0,.519-.3c.065-.093.112-.158.185-.158a.217.217,0,0,1,.186.186.35.35,0,0,1-.093.213.934.934,0,0,1-.789.455,1.5,1.5,0,0,1-1.113-.5" transform="translate(-202.824 -58.423)" fill="#132853"/>
    <path id="Path_244" data-name="Path 244" d="M297.63,84.723c0-1.039.705-1.93,1.3-1.93.427,0,.585.2.585.566a2.7,2.7,0,0,1-1.169,1.791c.056.316.3.51.742.51a1.428,1.428,0,0,0,1.086-.687c.065-.093.111-.157.185-.157a.217.217,0,0,1,.186.185.349.349,0,0,1-.093.214,1.782,1.782,0,0,1-1.456.854,1.271,1.271,0,0,1-1.364-1.345m1.383-1.346c0-.111-.046-.158-.13-.158-.213,0-.631.761-.631,1.429a1.735,1.735,0,0,0,.761-1.271" transform="translate(-210.184 -58.468)" fill="#132853"/>
    <path id="Path_245" data-name="Path 245" d="M308.6,85.346c0-.6.251-1.281.251-1.568,0-.139-.047-.185-.148-.185-.371,0-1.327,1.336-1.54,1.893-.167.436-.241.613-.445.613a.284.284,0,0,1-.306-.325c0-.195.12-2.023.12-2.348s.028-.473.232-.473c.232,0,.371.2.371.566s-.028,1.178-.028,1.2c.046-.083.984-1.7,1.856-1.7a.515.515,0,0,1,.529.519c0,.575-.325,1.281-.325,1.8,0,.316.13.417.38.417.325,0,.668-.427.844-.668.065-.093.112-.157.186-.157a.216.216,0,0,1,.185.185.349.349,0,0,1-.092.214c-.232.325-.7.891-1.244.891a.823.823,0,0,1-.826-.872" transform="translate(-216.383 -58.58)" fill="#132853"/>
    <path id="Path_246" data-name="Path 246" d="M319.178,80.426a16.978,16.978,0,0,1,.14-1.865h-.334c-.139,0-.167-.056-.167-.139s.112-.315.232-.315c.074,0,.195,0,.325.009.046-.325.093-.622.149-.845.055-.26.111-.353.214-.353.176,0,.482.2.482.408,0,.075-.12.251-.195.5l-.083.3h.325a1.371,1.371,0,0,0,.566-.093c.1,0,.26.185.26.306s-.371.213-.826.213h-.4a12.627,12.627,0,0,0-.111,1.819c0,1,.232,1.141.547,1.141s.622-.445.8-.687c.065-.093.111-.158.186-.158a.217.217,0,0,1,.185.186.349.349,0,0,1-.093.213c-.232.325-.622.863-1.225.863-.557,0-.975-.343-.975-1.5" transform="translate(-225.145 -54.319)" fill="#132853"/>
    <path id="Path_247" data-name="Path 247" d="M337.4,86.088a1.537,1.537,0,0,1-1.058.436,1.842,1.842,0,0,1-.872-.185c0,1.54.093,1.772.093,2.088a.341.341,0,0,1-.362.362c-.2,0-.251-.148-.251-.566,0-.576.037-2.125.074-3.257.028-.854.074-1.494.074-1.577,0-.2.074-.278.186-.278.185,0,.4.139.4.325a8.094,8.094,0,0,1-.1.928,6.183,6.183,0,0,0-.047.854c.223-.51,1.2-2.06,1.8-2.06s.77.547.77,1.012a3.037,3.037,0,0,1-.371,1.485h.083a1.215,1.215,0,0,0,.956-.455c.065-.093.112-.158.186-.158a.217.217,0,0,1,.185.186.351.351,0,0,1-.093.213,1.606,1.606,0,0,1-1.253.668c-.139,0-.269-.009-.4-.019m-.705-.148a5.121,5.121,0,0,1-.974-.381.527.527,0,0,0-.028.167c.009.186.148.353.51.353a.968.968,0,0,0,.492-.139m.427-.371a2.128,2.128,0,0,0,.455-1.336c0-.288-.083-.511-.306-.511-.343,0-1.262,1.373-1.262,1.448a3.2,3.2,0,0,0,1.113.4" transform="translate(-236.539 -58.691)" fill="#132853"/>
    <path id="Path_248" data-name="Path 248" d="M347.835,80.6c0-.956.213-1.837.464-1.837a.346.346,0,0,1,.362.38,5.209,5.209,0,0,0-.278,1.336c0,.761.269,1.086.547,1.086.325,0,.677-.408.853-.65.065-.093.111-.158.186-.158a.217.217,0,0,1,.186.186.35.35,0,0,1-.093.213c-.232.325-.668.9-1.141.9-.631,0-1.086-.5-1.086-1.457m1.243-3.127a.513.513,0,0,1-.51.473.374.374,0,0,1-.381-.371.473.473,0,0,1,.427-.529.428.428,0,0,1,.464.427" transform="translate(-245.638 -54.408)" fill="#132853"/>
    <path id="Path_249" data-name="Path 249" d="M354.371,78.233c0-2.784.585-3.777,1.048-3.777.371,0,.557.278.557.854a9.989,9.989,0,0,1-.984,3.424c0,.371.278.965.816.965.381,0,.64-.371.816-.612.065-.093.112-.158.185-.158a.217.217,0,0,1,.186.186.349.349,0,0,1-.093.213c-.232.325-.575.826-1.113.826-.705,0-1.42-.594-1.42-1.921m.529-.186a9.172,9.172,0,0,0,.613-2.793c0-.13-.037-.232-.112-.232-.195,0-.5,1.206-.5,3.025" transform="translate(-250.254 -52.58)" fill="#132853"/>
    <path id="Path_250" data-name="Path 250" d="M362.321,79.585a.278.278,0,0,1,.278-.3c.251,0,.38.269.613.269.213,0,.371-.186.548-.427.065-.093.111-.158.185-.158a.217.217,0,0,1,.186.186.35.35,0,0,1-.093.213,1.122,1.122,0,0,1-.724.538,2.894,2.894,0,0,1,.111.631c0,1.067-.464,1.782-.937,1.782-.52,0-.854-.538-.854-1.531,0-.854,0-1.912.046-2.728.1-1.884.51-3.545,1.253-3.545.38,0,.547.306.547.928a5.965,5.965,0,0,1-1.29,3.1c0,.594-.037,1.271-.037,2.106,0,.965.167,1.225.371,1.225s.39-.566.39-1.364c0-.4-.037-.649-.279-.649-.2,0-.316-.1-.316-.278m-.121-1.773a5.324,5.324,0,0,0,.844-2.579c0-.167-.056-.242-.148-.242-.232,0-.622,1.364-.7,2.821" transform="translate(-255.383 -52.625)" fill="#132853"/>
    <path id="Path_251" data-name="Path 251" d="M368.9,84.723c0-1.039.705-1.93,1.3-1.93.427,0,.585.2.585.566a2.7,2.7,0,0,1-1.169,1.791c.056.316.3.51.742.51a1.428,1.428,0,0,0,1.086-.687c.065-.093.111-.157.185-.157a.217.217,0,0,1,.186.185.349.349,0,0,1-.093.214,1.782,1.782,0,0,1-1.456.854,1.271,1.271,0,0,1-1.364-1.345m1.383-1.346c0-.111-.046-.158-.13-.158-.213,0-.631.761-.631,1.429a1.734,1.734,0,0,0,.761-1.271" transform="translate(-260.511 -58.468)" fill="#132853"/>
    <path id="Path_252" data-name="Path 252" d="M379.189,83.437c0-.482.232-1.021.232-1.271,0-.139-.055-.167-.232-.167a2.421,2.421,0,0,1-.372-.028,12.666,12.666,0,0,1-.714,1.178c-.13.2-.232.353-.334.353a.159.159,0,0,1-.158-.167c0-.121.056-.2.186-.4.2-.288.445-.7.649-1.076a.842.842,0,0,1-.575-.724.753.753,0,0,1,.724-.807c.381,0,.622.2.622.538a1.9,1.9,0,0,1-.185.65,3.3,3.3,0,0,0,.445.019c.325,0,.547.1.547.334,0,.482-.241,1.114-.241,1.522a.357.357,0,0,0,.371.4c.325,0,.585-.315.761-.556.065-.093.111-.158.185-.158a.217.217,0,0,1,.186.186.349.349,0,0,1-.093.213c-.232.325-.6.8-1.123.8a.837.837,0,0,1-.881-.835m-.539-2.013a1.269,1.269,0,0,0,.1-.427c0-.139-.074-.214-.186-.214s-.213.121-.213.3c0,.148.1.26.3.343" transform="translate(-266.665 -56.728)" fill="#132853"/>
    <path id="Path_253" data-name="Path 253" d="M392.24,84.929c.065-.093.111-.158.186-.158a.217.217,0,0,1,.185.186.349.349,0,0,1-.093.213c-.232.325-.575.826-1.076.826-.8,0-.826-1.1-.826-1.1s-.677,1.1-1.309,1.1c-.464,0-.677-.483-.677-.909,0-1.429.918-2.357,1.494-2.357a.667.667,0,0,1,.7.52c.009-.019.214-.38.455-.38.158,0,.232.12.232.269,0,.214-.352.39-.352,1.188,0,.64.046,1.215.362,1.215s.548-.371.724-.612m-3.044.083c0,.3.056.529.288.529.278,0,1.03-1.114,1.03-1.225s-.13-.139-.13-.278.111-.223.111-.362c0-.325-.065-.529-.306-.529-.325,0-.993.742-.993,1.865" transform="translate(-274.448 -58.423)" fill="#132853"/>
    <path id="Path_254" data-name="Path 254" d="M402.759,86.37c-.093,1.7-.881,2.747-1.707,2.747-.585,0-.928-.325-.928-.742,0-.705,1.271-1.494,2.153-2.125,0-1.438-.065-1.373-.065-1.373s-.714,1.178-1.429,1.178a.66.66,0,0,1-.64-.742,2.452,2.452,0,0,1,1.828-2.487.806.806,0,0,1,.678.3s.167-.214.306-.214a.286.286,0,0,1,.259.26c0,.176-.454.566-.454.965,0,.195.009.937.009,1.744a6.217,6.217,0,0,0,.863-.881c.065-.093.111-.157.185-.157a.216.216,0,0,1,.186.185.351.351,0,0,1-.093.214,6.046,6.046,0,0,1-1.151,1.132m-.5.371c-.742.529-1.624,1.151-1.624,1.605,0,.214.176.334.436.334.538,0,1.077-.705,1.188-1.939m-1.531-1.54c0,.186.056.38.195.38.418,0,1.364-1.383,1.364-1.754,0-.139-.121-.232-.121-.445,0-.093-.009-.158-.12-.158-.547,0-1.318,1.067-1.318,1.976" transform="translate(-282.564 -58.49)" fill="#132853"/>
    <path id="Path_255" data-name="Path 255" d="M412.091,84.723c0-1.039.705-1.93,1.3-1.93.427,0,.585.2.585.566a2.7,2.7,0,0,1-1.169,1.791c.056.316.3.51.742.51a1.428,1.428,0,0,0,1.086-.687c.065-.093.111-.157.185-.157A.217.217,0,0,1,415,85a.349.349,0,0,1-.093.214,1.782,1.782,0,0,1-1.456.854,1.271,1.271,0,0,1-1.364-1.345m1.383-1.346c0-.111-.046-.158-.13-.158-.213,0-.631.761-.631,1.429a1.734,1.734,0,0,0,.761-1.271" transform="translate(-291.015 -58.468)" fill="#132853"/>
  </g>
</svg>
