<svg xmlns="http://www.w3.org/2000/svg" width="30.459" height="30.459" viewBox="0 0 30.459 30.459">
  <path id="image-regular" d="M26.652,35.264a1.03,1.03,0,0,1,.952,1.088V58.095l-.3-.442L19.216,45.686a1.326,1.326,0,0,0-2.261,0l-4.938,7.3-1.814-2.9a1.326,1.326,0,0,0-2.32.007L3.123,57.707l-.268.422V36.351a1.03,1.03,0,0,1,.952-1.088ZM3.807,32A4.111,4.111,0,0,0,0,36.351V58.108a4.111,4.111,0,0,0,3.807,4.351H26.652a4.111,4.111,0,0,0,3.807-4.351V36.351A4.111,4.111,0,0,0,26.652,32ZM8.567,45.054a3.293,3.293,0,0,0,0-6.527,3.293,3.293,0,0,0,0,6.527Z" transform="translate(0 -32)" fill="#7e7e7e"/>
</svg>
