<svg id="Group_79" data-name="Group 79" xmlns="http://www.w3.org/2000/svg" xmlns:xlink="http://www.w3.org/1999/xlink" width="265.178" height="66" viewBox="0 0 265.178 66">
  <defs>
    <clipPath id="clip-path">
      <rect id="Rectangle_150" data-name="Rectangle 150" width="265.178" height="66" fill="none"/>
    </clipPath>
  </defs>
  <g id="Group_78" data-name="Group 78" clip-path="url(#clip-path)">
    <path id="Path_207" data-name="Path 207" d="M34.86,1.85a1.788,1.788,0,0,1,1.988,1.823,1.826,1.826,0,0,1-1.77,1.882,1.692,1.692,0,0,1-.218-.006H11.074V19.124h19.76a1.8,1.8,0,0,1,1.982,1.6,1.777,1.777,0,0,1,.008.271,1.761,1.761,0,0,1-1.988,1.823H11.074V36.948a1.963,1.963,0,0,1-1.7,2.194,1.938,1.938,0,0,1-.341.013c-1.268.008-1.99-.825-1.99-2.2V4.058A1.992,1.992,0,0,1,9.2,1.85Z" transform="translate(-2.619 -0.685)" fill="#fff"/>
    <path id="Path_208" data-name="Path 208" d="M179.207,2.047V37.258a1.792,1.792,0,0,1-1.876,2.042,1.828,1.828,0,0,1-1.936-1.714,1.782,1.782,0,0,1,.009-.328V34.665h-.112c-2.1,3.144-5.8,4.966-10.543,4.966-7.949,0-13.3-5.522-13.3-13.8s5.357-13.8,13.3-13.8c4.741,0,8.446,1.818,10.543,4.966h.112V2.047a1.806,1.806,0,0,1,1.55-2.031A1.829,1.829,0,0,1,177.33,0c1.209,0,1.877.717,1.877,2.042M175.4,25.833c0-6.127-4.139-10.372-10.046-10.372s-10.046,4.2-10.046,10.372S159.393,36.2,165.354,36.2,175.4,32.01,175.4,25.834Z" transform="translate(-56.42 0)" fill="#fff"/>
    <path id="Path_209" data-name="Path 209" d="M243.623,37.115c-1.545,3.036-4.582,4.742-8.72,4.742-5.961,0-9.657-3.866-9.657-10.265V8.03a1.818,1.818,0,0,1,1.877-2.042,1.856,1.856,0,0,1,1.934,1.776,1.881,1.881,0,0,1-.008.266v6.9h11.479a1.645,1.645,0,0,1,1.862,1.395,1.808,1.808,0,0,1-1.61,2.039,1.685,1.685,0,0,1-.252-.011H229.05v13.3c0,4.358,2.261,6.79,6.075,6.79a5.672,5.672,0,0,0,5.465-3.2,1.686,1.686,0,0,1,1.545-.936,1.713,1.713,0,0,1,1.715,1.711c0,.036,0,.072,0,.107a2.474,2.474,0,0,1-.224.995" transform="translate(-83.907 -2.23)" fill="#fff"/>
    <path id="Path_210" data-name="Path 210" d="M276.611,20.527a1.738,1.738,0,0,1-1.588,1.876,1.839,1.839,0,0,1-.288,0c-6.233,0-9.714,3.806-9.714,11.532v9.827a1.818,1.818,0,0,1-1.877,2.042,1.854,1.854,0,0,1-1.934-1.769,1.882,1.882,0,0,1,.008-.272V20.912a1.8,1.8,0,0,1,1.543-2.03,1.78,1.78,0,0,1,.383-.011c1.214,0,1.877.717,1.877,2.042V23.89h.112c1.818-3.368,5.074-5.187,9.6-5.187a1.7,1.7,0,0,1,1.872,1.5,1.712,1.712,0,0,1,.005.326Z" transform="translate(-97.306 -6.964)" fill="#fff"/>
    <path id="Path_211" data-name="Path 211" d="M314.409,20.816V43.661a1.792,1.792,0,0,1-1.877,2.042,1.828,1.828,0,0,1-1.936-1.715,1.778,1.778,0,0,1,.009-.327V41.068h-.113c-2.1,3.144-5.795,4.967-10.542,4.967-7.95,0-13.3-5.522-13.3-13.8s5.356-13.8,13.3-13.8c4.741,0,8.446,1.818,10.542,4.967h.113V20.81a1.807,1.807,0,0,1,1.926-2.042c1.209,0,1.877.722,1.877,2.048M310.6,32.242c0-6.127-4.139-10.372-10.046-10.372s-10.046,4.2-10.046,10.372,4.085,10.372,10.046,10.372S310.6,38.422,310.6,32.242Z" transform="translate(-106.787 -6.868)" fill="#fff"/>
    <path id="Path_212" data-name="Path 212" d="M365.684,33.051A13.24,13.24,0,0,1,359.27,43.2c-6.878,4.509-14.721,2.919-19.2-3.915-4.508-6.878-2.815-14.658,4.066-19.167a13.861,13.861,0,0,1,10.977-2.184,1.736,1.736,0,0,1,1.037.775,1.7,1.7,0,0,1-.309,2.377,1.751,1.751,0,0,1-.167.114,2.053,2.053,0,0,1-1.638.22,10.223,10.223,0,0,0-8.018,1.56c-4.986,3.27-6.1,9.018-2.71,14.184s9.105,6.44,14.092,3.168a9.865,9.865,0,0,0,4.741-7.662,1.731,1.731,0,0,1,.8-1.185,1.685,1.685,0,0,1,2.354.366c.033.045.063.092.092.141a1.816,1.816,0,0,1,.3,1.058Z" transform="translate(-125.753 -6.558)" fill="#fff"/>
    <path id="Path_213" data-name="Path 213" d="M400.9,30.5a1.716,1.716,0,0,1,1.845,2.893,1.769,1.769,0,0,1-.276.143l-18.43,9.539a1.863,1.863,0,0,1-2.725-.7,2.72,2.72,0,0,1-.078-2.074l7.053-25.156-14.213,7.355a1.674,1.674,0,0,1-2.453-.658,1.645,1.645,0,0,1,.591-2.251,1.617,1.617,0,0,1,.286-.132l17.45-9.039a1.808,1.808,0,0,1,2.652.555,2.435,2.435,0,0,1,.053,2.144L385.7,38.342l15.193-7.862Z" transform="translate(-138.358 -3.746)" fill="#fff"/>
    <path id="Path_214" data-name="Path 214" d="M65.882,20.4A12.473,12.473,0,1,1,53.409,32.877,12.473,12.473,0,0,1,65.882,20.4" transform="translate(-19.897 -7.601)" fill="#ef5527"/>
    <path id="Path_215" data-name="Path 215" d="M115.5,20.982A12.288,12.288,0,1,1,103.208,33.27,12.288,12.288,0,0,1,115.5,20.982" transform="translate(-38.448 -7.817)" fill="#fbb038"/>
    <path id="Path_216" data-name="Path 216" d="M59.289,42.444a4.784,4.784,0,0,1,1.633-2.391,100.609,100.609,0,0,0,7.705-8.375c.6-.731.4-1.262.326-2.135a5.218,5.218,0,0,1,.727-3.112A8.569,8.569,0,0,1,72.1,23.911a5.3,5.3,0,0,1,1.988-1,2.3,2.3,0,0,1,2.075.507,2.708,2.708,0,0,1,.722,1.916,5.942,5.942,0,0,1-.434,2.074,10.319,10.319,0,0,1-2.38,3.906,3.554,3.554,0,0,1-1.993,1c-.76.078-1.575-.511-2.271-.087a3.387,3.387,0,0,0-.889.936q-2.761,3.8-5.515,7.6c-.488.673-2.9,4.89-3.817,3.178a2.255,2.255,0,0,1-.283-1.492Z" transform="translate(-22.081 -8.508)" fill="#fff"/>
    <path id="Path_217" data-name="Path 217" d="M111.51,44.885l3.977-4.162.835-1.156.238-1.652.083-1.326,9.891-12.394-.064-1.186-.56-.779-1.186-.107-.36.492-8.891,12.937-.911.593-1.8.834-3.817,6.05.283.2,1.671-2.1,1.7-2.222.593.4-3.236,4.445.136.332h.312l2.014-2.623,1.39-1.705.634.424-3.221,4.513Z" transform="translate(-40.586 -8.241)" fill="#fff"/>
    <path id="Path_218" data-name="Path 218" d="M8.818,84.917a3.717,3.717,0,0,1-2.933,1.308,3.781,3.781,0,0,1-2.635-1.03,3.438,3.438,0,0,1-2.022.833C.515,86.027,0,85.591,0,85.135a.635.635,0,0,1,.634-.673.475.475,0,0,1,.476.435.262.262,0,0,0,.3.3,2.491,2.491,0,0,0,1.347-.575A2.85,2.85,0,0,1,2.2,83.035,1.438,1.438,0,0,1,3.567,81.43a3.785,3.785,0,0,1,1.605.476,26.632,26.632,0,0,0,2.3-4.063,7.712,7.712,0,0,1-.892-2.913c0-1.506.872-2.18,1.685-2.18A1.274,1.274,0,0,1,9.591,74.1a10.356,10.356,0,0,1-1.03,3.547,10.837,10.837,0,0,1,1.248,4.161,5.277,5.277,0,0,1-.575,2.5,2.6,2.6,0,0,0,.753.119,1.457,1.457,0,0,0,1.387-.713c.139-.2.238-.337.4-.337a.463.463,0,0,1,.4.4.748.748,0,0,1-.2.456,2.215,2.215,0,0,1-1.942.931,3.356,3.356,0,0,1-1.209-.238M4.7,82.559a2.16,2.16,0,0,0-.912-.337c-.336,0-.634.277-.634.792a2,2,0,0,0,.317.991A15.45,15.45,0,0,0,4.7,82.559M3.944,84.6a2.89,2.89,0,0,0,2.021.813,2.34,2.34,0,0,0,1.9-.892c-.852-.456-1.7-1.07-2.438-1.545A13.306,13.306,0,0,1,3.944,84.6m4.32-.734a4.875,4.875,0,0,0,.416-2.12,7.608,7.608,0,0,0-.733-2.814,27.275,27.275,0,0,1-2.042,3.408c.793.5,1.586,1.089,2.359,1.525m-.2-7.392a7.943,7.943,0,0,0,.594-2.358c0-.317-.119-.555-.4-.555s-.634.337-.634,1.169a4.981,4.981,0,0,0,.436,1.744" transform="translate(0 -27.102)" fill="#fff"/>
    <path id="Path_219" data-name="Path 219" d="M17.445,84.41a36.367,36.367,0,0,1,.3-3.983h-.713c-.3,0-.356-.119-.356-.3s.237-.673.5-.673c.158,0,.416,0,.693.02.1-.694.2-1.328.317-1.8.119-.555.238-.753.456-.753.376,0,1.03.417,1.03.872,0,.159-.257.536-.416,1.07l-.178.634h.693a2.924,2.924,0,0,0,1.208-.2c.218,0,.555.4.555.654s-.793.456-1.764.456h-.852a27.062,27.062,0,0,0-.238,3.885c0,2.14.5,2.437,1.169,2.437.654,0,1.328-.951,1.7-1.466.139-.2.238-.337.4-.337a.463.463,0,0,1,.4.4.746.746,0,0,1-.2.456c-.5.693-1.328,1.843-2.616,1.843-1.189,0-2.081-.733-2.081-3.21" transform="translate(-6.211 -28.655)" fill="#fff"/>
    <path id="Path_220" data-name="Path 220" d="M27.872,86.968c0-1.03.5-2.18.5-2.714,0-.3-.119-.356-.5-.356a5.156,5.156,0,0,1-.792-.06,27.048,27.048,0,0,1-1.526,2.516c-.277.417-.5.753-.713.753a.339.339,0,0,1-.337-.356c0-.258.119-.436.4-.852.416-.614.951-1.486,1.387-2.3a1.8,1.8,0,0,1-1.229-1.546A1.608,1.608,0,0,1,26.6,80.329c.813,0,1.328.436,1.328,1.15a4.06,4.06,0,0,1-.4,1.387,7.045,7.045,0,0,0,.951.04c.694,0,1.17.218,1.17.713,0,1.03-.516,2.378-.516,3.25a.763.763,0,0,0,.792.851c.694,0,1.249-.673,1.626-1.188.138-.2.237-.337.4-.337a.463.463,0,0,1,.4.4.748.748,0,0,1-.2.456c-.5.693-1.288,1.7-2.4,1.7a1.788,1.788,0,0,1-1.882-1.784m-1.15-4.3a2.708,2.708,0,0,0,.218-.911c0-.3-.158-.456-.4-.456s-.456.258-.456.634c0,.317.218.555.634.733" transform="translate(-9.128 -29.925)" fill="#fff"/>
    <path id="Path_221" data-name="Path 221" d="M35.775,86.915c0-2.22,1.507-4.122,2.775-4.122.912,0,1.248.436,1.248,1.209,0,1.645-1.744,3.309-2.5,3.824.119.674.634,1.09,1.586,1.09a3.049,3.049,0,0,0,2.318-1.466c.139-.2.238-.336.4-.336a.462.462,0,0,1,.4.4.75.75,0,0,1-.2.456,3.81,3.81,0,0,1-3.112,1.823,2.714,2.714,0,0,1-2.913-2.873m2.953-2.874c0-.238-.1-.337-.277-.337-.456,0-1.348,1.625-1.348,3.052a3.7,3.7,0,0,0,1.625-2.715" transform="translate(-13.327 -30.843)" fill="#fff"/>
    <path id="Path_222" data-name="Path 222" d="M51.6,87.427c.139-.2.238-.337.4-.337a.463.463,0,0,1,.4.4.744.744,0,0,1-.2.456c-.5.693-1.229,1.764-2.3,1.764-1.7,0-1.764-2.339-1.764-2.339s-1.446,2.339-2.794,2.339c-.991,0-1.446-1.031-1.446-1.942,0-3.052,1.961-5.034,3.19-5.034a1.424,1.424,0,0,1,1.486,1.11c.02-.04.456-.813.971-.813.337,0,.5.257.5.574,0,.456-.753.833-.753,2.537,0,1.367.1,2.6.773,2.6.693,0,1.169-.792,1.545-1.308m-6.5.178c0,.634.119,1.129.614,1.129.594,0,2.2-2.378,2.2-2.616s-.278-.3-.278-.594.238-.476.238-.772c0-.694-.139-1.13-.654-1.13-.693,0-2.12,1.586-2.12,3.983" transform="translate(-16.351 -30.82)" fill="#fff"/>
    <path id="Path_223" data-name="Path 223" d="M64.907,87.949c0-.932.337-2.457.337-3.111,0-.317-.079-.535-.436-.535-.872,0-2.437,2.913-2.437,4.181a.7.7,0,0,1-.753.714c-.376,0-.575-.3-.575-.793s.436-2.873.436-3.646c0-.594-.119-.792-.515-.792-.971,0-2.714,2.537-3.012,3.884-.3,1.367-.376,2.061-.951,2.061-.416,0-.575-.258-.575-.793s.079-3.111.079-5.291c0-.634.258-.872.654-.872.614,0,.832.257.832.792,0,.515-.158,1.922-.178,2.041.1-.158,1.724-2.933,3.467-2.933,1.19,0,1.407.892,1.407,1.665a8.9,8.9,0,0,1-.079.951s1.15-2.219,2.6-2.219a1.248,1.248,0,0,1,1.347,1.407c0,.912-.336,2.378-.336,3.151,0,.673.218.971.673.971.5,0,1.07-.792,1.447-1.308.139-.2.238-.337.4-.337a.463.463,0,0,1,.4.4.748.748,0,0,1-.2.456c-.5.693-1.229,1.764-2.3,1.764a1.653,1.653,0,0,1-1.724-1.8" transform="translate(-21.021 -30.867)" fill="#fff"/>
    <path id="Path_224" data-name="Path 224" d="M75.308,82.521c0-5.945,1.248-8.065,2.239-8.065.792,0,1.188.594,1.188,1.823,0,3.032-2.1,7.312-2.1,7.312,0,.792.594,2.061,1.744,2.061.813,0,1.367-.792,1.744-1.308.139-.2.238-.337.4-.337a.463.463,0,0,1,.4.4.748.748,0,0,1-.2.456c-.5.693-1.229,1.764-2.378,1.764-1.506,0-3.032-1.269-3.032-4.1m1.129-.4a19.588,19.588,0,0,0,1.308-5.965c0-.278-.08-.5-.238-.5-.416,0-1.07,2.576-1.07,6.46" transform="translate(-28.055 -27.737)" fill="#fff"/>
    <path id="Path_225" data-name="Path 225" d="M82.539,84.635c0-2.041.456-3.924.991-3.924a.739.739,0,0,1,.773.813,11.115,11.115,0,0,0-.595,2.854c0,1.625.575,2.318,1.17,2.318.693,0,1.446-.872,1.823-1.387.139-.2.238-.337.4-.337a.463.463,0,0,1,.4.4.746.746,0,0,1-.2.456c-.5.693-1.427,1.923-2.438,1.923-1.347,0-2.318-1.07-2.318-3.112m2.655-6.678a1.1,1.1,0,0,1-1.09,1.011.8.8,0,0,1-.813-.793,1.009,1.009,0,0,1,.912-1.129.915.915,0,0,1,.991.912" transform="translate(-30.749 -28.702)" fill="#fff"/>
    <path id="Path_226" data-name="Path 226" d="M93.342,88.065c0-1.288.535-2.735.535-3.349,0-.3-.1-.4-.317-.4-.792,0-2.834,2.854-3.29,4.042-.356.932-.515,1.308-.951,1.308a.606.606,0,0,1-.654-.694c0-.416.257-4.319.257-5.013s.06-1.01.5-1.01c.5,0,.793.436.793,1.208s-.06,2.517-.06,2.556c.1-.178,2.1-3.626,3.963-3.626a1.1,1.1,0,0,1,1.13,1.109c0,1.229-.694,2.735-.694,3.844,0,.674.278.892.813.892.694,0,1.427-.911,1.8-1.427.139-.2.238-.336.4-.336a.462.462,0,0,1,.4.4.746.746,0,0,1-.2.456c-.5.693-1.486,1.9-2.656,1.9a1.757,1.757,0,0,1-1.763-1.863" transform="translate(-33.031 -30.902)" fill="#fff"/>
    <path id="Path_227" data-name="Path 227" d="M101.926,86.915c0-2.22,1.507-4.122,2.775-4.122.912,0,1.248.436,1.248,1.209,0,1.645-1.744,3.309-2.5,3.824.119.674.634,1.09,1.586,1.09a3.049,3.049,0,0,0,2.318-1.466c.139-.2.238-.336.4-.336a.462.462,0,0,1,.4.4.75.75,0,0,1-.2.456,3.81,3.81,0,0,1-3.112,1.823,2.714,2.714,0,0,1-2.913-2.873m2.953-2.874c0-.238-.1-.337-.277-.337-.456,0-1.348,1.625-1.348,3.052a3.7,3.7,0,0,0,1.625-2.715" transform="translate(-37.971 -30.843)" fill="#fff"/>
    <path id="Path_228" data-name="Path 228" d="M123.227,90.573a22.872,22.872,0,0,0,.2-2.913s-1.486,2.042-2.953,2.042c-1.367,0-1.665-1.13-1.665-2.4a16.08,16.08,0,0,1,.694-3.924c.139-.435.277-.555.555-.555a.86.86,0,0,1,.793.932c0,.575-.793,1.843-.793,3.487,0,.813.238,1.288.753,1.288a4.085,4.085,0,0,0,2.359-2.2,7.617,7.617,0,0,0,.673-2.615c.02-.476.218-.754.5-.754a.949.949,0,0,1,.852,1.031c0,.614-.4,1.665-.4,2.774a22.026,22.026,0,0,1-.178,2.834,12.22,12.22,0,0,0,2.16-2.14c.139-.2.237-.337.4-.337a.463.463,0,0,1,.4.4.748.748,0,0,1-.2.456,13.735,13.735,0,0,1-2.913,2.755c-.594,3.487-1.961,6.123-3.646,6.123a1.953,1.953,0,0,1-2.021-1.764c0-1.586,2.2-2.992,4.439-4.518m-.178,1.189c-1.744,1.268-3.21,2.4-3.21,3.329,0,.614.357.792.892.792,1.05,0,1.882-1.764,2.318-4.122" transform="translate(-44.253 -30.855)" fill="#fff"/>
    <path id="Path_229" data-name="Path 229" d="M135.372,88.932a2.487,2.487,0,0,1-1.863.872,2.545,2.545,0,0,1-2.6-2.735,3.929,3.929,0,0,1,1.07-2.834,1.994,1.994,0,0,1,1.942-1.347c1.625,0,2.5,1.526,2.5,3.269a4.494,4.494,0,0,1-.516,2.022h.238a1.389,1.389,0,0,0,1.209-.693c.139-.2.238-.337.4-.337a.462.462,0,0,1,.4.4.75.75,0,0,1-.2.456,2.186,2.186,0,0,1-1.982.971,5.9,5.9,0,0,1-.594-.04m-1.03-.317a4.29,4.29,0,0,1-2.239-2.4,4.138,4.138,0,0,0-.1.912,1.563,1.563,0,0,0,1.506,1.744,1.587,1.587,0,0,0,.833-.258m.594-.674a3.436,3.436,0,0,0,.416-1.7c0-1.546-.594-2.5-1.407-2.5a1.093,1.093,0,0,0-1.09,1.229,3.339,3.339,0,0,0,2.081,2.972" transform="translate(-48.77 -30.879)" fill="#fff"/>
    <path id="Path_230" data-name="Path 230" d="M146.274,86.5c-.772,1.189-2.14,3.112-3.428,3.112-.734,0-1.387-.555-1.387-1.685a26.693,26.693,0,0,1,.535-4.2c.1-.614.218-.872.555-.872.4,0,.792.436.792,1.11s-.713,2.735-.713,3.587c0,.594.179.832.595.832s1.823-1.407,2.4-2.457a14.333,14.333,0,0,0,1.07-2.5c.2-.634.317-.852.614-.852a.856.856,0,0,1,.773.931c0,.615-.713,1.606-.713,2.5,0,1.189.238,2.675.951,2.675.654,0,1.229-.792,1.605-1.308.139-.2.238-.337.4-.337a.462.462,0,0,1,.4.4.746.746,0,0,1-.2.456c-.5.693-1.288,1.7-2.359,1.7-1.387,0-1.8-1.427-1.882-3.092" transform="translate(-52.698 -30.761)" fill="#fff"/>
    <path id="Path_231" data-name="Path 231" d="M158.373,86.968c0-1.03.5-2.18.5-2.714,0-.3-.119-.356-.5-.356a5.156,5.156,0,0,1-.792-.06,27.045,27.045,0,0,1-1.526,2.516c-.277.417-.5.753-.713.753A.339.339,0,0,1,155,86.75c0-.258.119-.436.4-.852.416-.614.951-1.486,1.387-2.3a1.8,1.8,0,0,1-1.229-1.546,1.608,1.608,0,0,1,1.546-1.724c.813,0,1.328.436,1.328,1.15a4.06,4.06,0,0,1-.4,1.387,7.045,7.045,0,0,0,.951.04c.694,0,1.17.218,1.17.713,0,1.03-.516,2.378-.516,3.25a.763.763,0,0,0,.792.851c.694,0,1.249-.673,1.625-1.188.139-.2.238-.337.4-.337a.463.463,0,0,1,.4.4.748.748,0,0,1-.2.456c-.5.693-1.288,1.7-2.4,1.7a1.788,1.788,0,0,1-1.882-1.784m-1.15-4.3a2.708,2.708,0,0,0,.218-.911c0-.3-.158-.456-.4-.456s-.456.258-.456.634c0,.317.218.555.634.733" transform="translate(-57.744 -29.925)" fill="#fff"/>
    <path id="Path_232" data-name="Path 232" d="M176.8,84.681c-.4-.139-.575-.278-.575-.575,0-.337.337-.516.713-.516a3.365,3.365,0,0,0,2.081-2.418.312.312,0,0,0-.337-.336c-.813,0-2.18,1.9-2.655,2.734a3.485,3.485,0,0,0-.376,1.645c0,.337.06.654.06.832a.652.652,0,0,1-.713.595c-.356,0-.476-.218-.476-.733s.158-3.25.158-5.073c0-4.6.674-6.223,1.943-6.223.812,0,1.328.614,1.328,1.625,0,2.714-2.22,5.885-2.22,5.885l-.059.654c.079-.139,1.724-2.874,3.349-2.874a1.115,1.115,0,0,1,1.15,1.229c0,1.367-1.7,2.675-2.477,3.031,0,0,.792,1.229,1.843,1.229a1.814,1.814,0,0,0,1.486-.991c.139-.2.238-.336.4-.336a.463.463,0,0,1,.4.4.748.748,0,0,1-.2.456,2.512,2.512,0,0,1-2.18,1.407,3.535,3.535,0,0,1-2.635-1.645m-1.129-3.924a12.9,12.9,0,0,0,1.288-4.6c0-.336-.159-.594-.377-.594-.872,0-.911,4.8-.911,5.192" transform="translate(-65.014 -27.796)" fill="#fff"/>
    <path id="Path_233" data-name="Path 233" d="M185.063,84.635c0-2.041.456-3.924.991-3.924a.739.739,0,0,1,.773.813,11.125,11.125,0,0,0-.594,2.854c0,1.625.574,2.318,1.169,2.318.693,0,1.446-.872,1.823-1.387.139-.2.238-.337.4-.337a.463.463,0,0,1,.4.4.748.748,0,0,1-.2.456c-.5.693-1.427,1.923-2.438,1.923-1.347,0-2.318-1.07-2.318-3.112m2.656-6.678a1.1,1.1,0,0,1-1.09,1.011.8.8,0,0,1-.813-.793,1.009,1.009,0,0,1,.91-1.129.915.915,0,0,1,.992.912" transform="translate(-68.942 -28.702)" fill="#fff"/>
    <path id="Path_234" data-name="Path 234" d="M191.33,84.41a36.246,36.246,0,0,1,.3-3.983h-.714c-.3,0-.356-.119-.356-.3s.238-.673.5-.673c.159,0,.416,0,.693.02.1-.694.2-1.328.318-1.8.119-.555.238-.753.456-.753.376,0,1.03.417,1.03.872,0,.159-.257.536-.416,1.07l-.178.634h.693a2.927,2.927,0,0,0,1.208-.2c.218,0,.555.4.555.654s-.792.456-1.764.456H192.8a26.967,26.967,0,0,0-.238,3.885c0,2.14.5,2.437,1.169,2.437.654,0,1.328-.951,1.7-1.466.139-.2.238-.337.4-.337a.463.463,0,0,1,.4.4.746.746,0,0,1-.2.456c-.5.693-1.328,1.843-2.615,1.843-1.19,0-2.081-.733-2.081-3.21" transform="translate(-70.989 -28.655)" fill="#fff"/>
    <path id="Path_235" data-name="Path 235" d="M203.333,87.45c.139-.2.238-.337.4-.337a.463.463,0,0,1,.4.4.746.746,0,0,1-.2.456,3.855,3.855,0,0,1-3.151,1.923,2.9,2.9,0,0,1-2.893-2.992c0-2.477,1.208-4.1,2.755-4.1a1.609,1.609,0,0,1,1.645,1.764c0,.555-.277.892-.693.892a.613.613,0,0,1-.634-.535c0-.278.2-.4.2-.634a.55.55,0,0,0-.535-.575c-.595,0-1.546,1.189-1.546,3.191,0,1.427.754,2.1,1.923,2.1a3.01,3.01,0,0,0,2.338-1.546" transform="translate(-73.718 -30.843)" fill="#fff"/>
    <path id="Path_236" data-name="Path 236" d="M211.352,84.505c0-.912.159-2.576.159-3.032,0-.4-.079-.554-.376-.554-.812,0-2.695,3.13-2.972,4.557-.237,1.249-.456,1.387-.892,1.387-.317,0-.5-.3-.5-.773,0-.119-.02-2.041-.02-3.8,0-3.883.3-8.62,2.3-8.62.773,0,1.368.555,1.368,1.764,0,2.933-2.517,7.689-2.517,7.689l-.04.773c.078-.2,1.961-4.122,3.626-4.122.892,0,1.268.5,1.268,1.407,0,1.229-.159,2.3-.159,3.052,0,.673.258,1.129.852,1.129.852,0,1.407-.792,1.783-1.308.139-.2.238-.336.4-.336a.462.462,0,0,1,.4.4.748.748,0,0,1-.2.456,3.265,3.265,0,0,1-2.576,1.763,1.748,1.748,0,0,1-1.9-1.823m-3.507-2.755a20.118,20.118,0,0,0,1.605-6.322c0-.435-.159-.673-.436-.673-.792,0-1.169,3.983-1.169,6.995" transform="translate(-77.023 -27.443)" fill="#fff"/>
    <path id="Path_237" data-name="Path 237" d="M219.355,86.915c0-2.22,1.506-4.122,2.774-4.122.912,0,1.249.436,1.249,1.209,0,1.645-1.744,3.309-2.5,3.824.119.674.634,1.09,1.585,1.09a3.051,3.051,0,0,0,2.319-1.466c.138-.2.237-.336.4-.336a.463.463,0,0,1,.4.4.745.745,0,0,1-.2.456,3.806,3.806,0,0,1-3.11,1.823,2.714,2.714,0,0,1-2.913-2.873m2.953-2.874c0-.238-.1-.337-.278-.337-.456,0-1.348,1.625-1.348,3.052a3.7,3.7,0,0,0,1.626-2.715" transform="translate(-81.717 -30.843)" fill="#fff"/>
    <path id="Path_238" data-name="Path 238" d="M232.809,88.065c0-1.288.535-2.735.535-3.349,0-.3-.1-.4-.317-.4-.792,0-2.834,2.854-3.289,4.042-.358.932-.516,1.308-.952,1.308a.607.607,0,0,1-.654-.694c0-.416.258-4.319.258-5.013s.06-1.01.5-1.01c.494,0,.792.436.792,1.208s-.06,2.517-.06,2.556c.1-.178,2.1-3.626,3.962-3.626a1.1,1.1,0,0,1,1.13,1.109c0,1.229-.694,2.735-.694,3.844,0,.674.278.892.813.892.693,0,1.426-.911,1.8-1.427.139-.2.238-.336.4-.336a.461.461,0,0,1,.4.4.743.743,0,0,1-.2.456c-.5.693-1.486,1.9-2.655,1.9a1.757,1.757,0,0,1-1.764-1.863" transform="translate(-84.987 -30.902)" fill="#fff"/>
    <path id="Path_239" data-name="Path 239" d="M244.967,91.494c0,.872-1.089,2.26-1.625,2.26-.3,0-.336-.2-.336-.4s.574-.515.574-1.11c0-.376-.317-.574-.317-.912a.905.905,0,0,1,.872-.931c.575,0,.832.336.832,1.089" transform="translate(-90.528 -33.679)" fill="#fff"/>
    <path id="Path_240" data-name="Path 240" d="M259.888,89.47a3.281,3.281,0,0,1-2.259.931,3.935,3.935,0,0,1-1.862-.4c0,3.289.2,3.785.2,4.459a.727.727,0,0,1-.772.772c-.436,0-.535-.317-.535-1.208,0-1.229.079-4.538.159-6.956.06-1.823.159-3.19.159-3.369,0-.436.158-.594.4-.594.4,0,.852.3.852.693A17.261,17.261,0,0,1,256,85.785a13.216,13.216,0,0,0-.1,1.823c.476-1.09,2.557-4.4,3.844-4.4,1.308,0,1.645,1.169,1.645,2.16a6.485,6.485,0,0,1-.792,3.171h.178a2.594,2.594,0,0,0,2.041-.971c.139-.2.238-.337.4-.337a.463.463,0,0,1,.4.4.75.75,0,0,1-.2.456,3.428,3.428,0,0,1-2.676,1.427c-.3,0-.575-.02-.852-.04m-1.506-.317a10.938,10.938,0,0,1-2.081-.813,1.127,1.127,0,0,0-.06.357c.02.4.317.753,1.09.753a2.069,2.069,0,0,0,1.05-.3m.911-.793a4.545,4.545,0,0,0,.971-2.853c0-.614-.178-1.091-.654-1.091-.734,0-2.695,2.933-2.695,3.092a6.832,6.832,0,0,0,2.377.852" transform="translate(-94.868 -30.961)" fill="#fff"/>
    <path id="Path_241" data-name="Path 241" d="M271.1,86.968c0-1.03.494-2.18.494-2.714,0-.3-.118-.356-.494-.356a5.173,5.173,0,0,1-.794-.06,27.053,27.053,0,0,1-1.525,2.516c-.277.417-.5.753-.713.753a.339.339,0,0,1-.337-.356c0-.258.119-.436.4-.852.416-.614.951-1.486,1.387-2.3a1.8,1.8,0,0,1-1.229-1.546,1.608,1.608,0,0,1,1.545-1.724c.813,0,1.328.436,1.328,1.15a4.057,4.057,0,0,1-.4,1.387,7.05,7.05,0,0,0,.951.04c.693,0,1.169.218,1.169.713,0,1.03-.515,2.378-.515,3.25a.763.763,0,0,0,.793.851c.693,0,1.249-.673,1.625-1.188.139-.2.238-.337.4-.337a.463.463,0,0,1,.4.4.745.745,0,0,1-.2.456c-.494.693-1.288,1.7-2.4,1.7a1.788,1.788,0,0,1-1.882-1.784m-1.15-4.3a2.711,2.711,0,0,0,.218-.911c0-.3-.159-.456-.4-.456s-.456.258-.456.634c0,.317.218.555.634.733" transform="translate(-99.738 -29.925)" fill="#fff"/>
    <path id="Path_242" data-name="Path 242" d="M279,86.915c0-2.22,1.506-4.122,2.774-4.122.912,0,1.249.436,1.249,1.209,0,1.645-1.744,3.309-2.5,3.824.119.674.634,1.09,1.585,1.09a3.051,3.051,0,0,0,2.319-1.466c.138-.2.237-.336.4-.336a.463.463,0,0,1,.4.4.745.745,0,0,1-.2.456,3.806,3.806,0,0,1-3.11,1.823A2.714,2.714,0,0,1,279,86.915m2.953-2.874c0-.238-.1-.337-.278-.337-.456,0-1.348,1.625-1.348,3.052a3.7,3.7,0,0,0,1.626-2.715" transform="translate(-103.937 -30.843)" fill="#fff"/>
    <path id="Path_243" data-name="Path 243" d="M290.856,87.843c-.318.535-1.606,2-2.081,2a1.026,1.026,0,0,1-1.031-1.05,45.294,45.294,0,0,0-.535-5.212c0-.515.139-.852.674-.852.436,0,.634.3.634,1.109,0,.654.356,4.855.356,4.855a7.186,7.186,0,0,0,1.566-2.12c0-2.121.535-3.567,1.387-3.567.674,0,.951.337.951.852,0,1.07-1.387,3.171-1.387,3.171a2.214,2.214,0,0,0,1.823,1.03,1.236,1.236,0,0,0,1.109-.634c.139-.2.238-.337.4-.337a.463.463,0,0,1,.4.4.748.748,0,0,1-.2.456,2,2,0,0,1-1.685.971,3.2,3.2,0,0,1-2.377-1.07" transform="translate(-106.995 -30.82)" fill="#fff"/>
    <path id="Path_244" data-name="Path 244" d="M297.63,86.915c0-2.22,1.506-4.122,2.774-4.122.912,0,1.249.436,1.249,1.209,0,1.645-1.744,3.309-2.5,3.824.119.674.634,1.09,1.585,1.09a3.051,3.051,0,0,0,2.319-1.466c.138-.2.237-.336.4-.336a.463.463,0,0,1,.4.4.746.746,0,0,1-.2.456,3.806,3.806,0,0,1-3.11,1.823,2.714,2.714,0,0,1-2.913-2.873m2.953-2.874c0-.238-.1-.337-.278-.337-.456,0-1.348,1.625-1.348,3.052a3.7,3.7,0,0,0,1.626-2.715" transform="translate(-110.877 -30.843)" fill="#fff"/>
    <path id="Path_245" data-name="Path 245" d="M311.086,88.065c0-1.288.535-2.735.535-3.349,0-.3-.1-.4-.317-.4-.793,0-2.834,2.854-3.29,4.042-.358.932-.515,1.308-.951,1.308a.606.606,0,0,1-.654-.694c0-.416.257-4.319.257-5.013s.06-1.01.5-1.01c.494,0,.792.436.792,1.208s-.06,2.517-.06,2.556c.1-.178,2.1-3.626,3.964-3.626a1.1,1.1,0,0,1,1.129,1.109c0,1.229-.693,2.735-.693,3.844,0,.674.277.892.813.892.694,0,1.427-.911,1.8-1.427.139-.2.238-.336.4-.336a.461.461,0,0,1,.4.4.745.745,0,0,1-.2.456c-.5.693-1.487,1.9-2.656,1.9a1.757,1.757,0,0,1-1.763-1.863" transform="translate(-114.148 -30.902)" fill="#fff"/>
    <path id="Path_246" data-name="Path 246" d="M319.589,84.41a36.246,36.246,0,0,1,.3-3.983h-.714c-.3,0-.357-.119-.357-.3s.238-.673.5-.673c.159,0,.416,0,.693.02.1-.694.2-1.328.318-1.8.119-.555.238-.753.456-.753.376,0,1.03.417,1.03.872,0,.159-.257.536-.416,1.07l-.178.634h.693a2.927,2.927,0,0,0,1.208-.2c.218,0,.555.4.555.654s-.792.456-1.764.456h-.852a26.973,26.973,0,0,0-.238,3.885c0,2.14.5,2.437,1.169,2.437.654,0,1.328-.951,1.7-1.466.139-.2.238-.337.4-.337a.463.463,0,0,1,.4.4.746.746,0,0,1-.2.456c-.5.693-1.328,1.843-2.615,1.843-1.19,0-2.081-.733-2.081-3.21" transform="translate(-118.77 -28.655)" fill="#fff"/>
    <path id="Path_247" data-name="Path 247" d="M340.183,89.47a3.284,3.284,0,0,1-2.26.931,3.935,3.935,0,0,1-1.862-.4c0,3.289.2,3.785.2,4.459a.727.727,0,0,1-.772.772c-.436,0-.535-.317-.535-1.208,0-1.229.079-4.538.159-6.956.06-1.823.159-3.19.159-3.369,0-.436.158-.594.4-.594.4,0,.852.3.852.693a17.254,17.254,0,0,1-.218,1.982,13.216,13.216,0,0,0-.1,1.823c.476-1.09,2.557-4.4,3.844-4.4,1.308,0,1.645,1.169,1.645,2.16a6.485,6.485,0,0,1-.792,3.171h.178a2.594,2.594,0,0,0,2.041-.971c.139-.2.238-.337.4-.337a.463.463,0,0,1,.4.4.75.75,0,0,1-.2.456,3.428,3.428,0,0,1-2.676,1.427c-.3,0-.575-.02-.852-.04m-1.506-.317a10.938,10.938,0,0,1-2.081-.813,1.127,1.127,0,0,0-.06.357c.02.4.317.753,1.09.753a2.069,2.069,0,0,0,1.05-.3m.911-.793a4.545,4.545,0,0,0,.971-2.853c0-.614-.178-1.091-.654-1.091-.733,0-2.695,2.933-2.695,3.092a6.832,6.832,0,0,0,2.378.852" transform="translate(-124.781 -30.961)" fill="#fff"/>
    <path id="Path_248" data-name="Path 248" d="M347.835,84.635c0-2.041.456-3.924.991-3.924a.739.739,0,0,1,.773.813A11.126,11.126,0,0,0,349,84.378c0,1.625.574,2.318,1.169,2.318.693,0,1.446-.872,1.823-1.387.139-.2.238-.337.4-.337a.463.463,0,0,1,.4.4.748.748,0,0,1-.2.456c-.5.693-1.427,1.923-2.438,1.923-1.347,0-2.319-1.07-2.319-3.112m2.655-6.678a1.1,1.1,0,0,1-1.089,1.011.8.8,0,0,1-.813-.793,1.01,1.01,0,0,1,.912-1.129.915.915,0,0,1,.991.912" transform="translate(-129.58 -28.702)" fill="#fff"/>
    <path id="Path_249" data-name="Path 249" d="M354.371,82.521c0-5.945,1.249-8.065,2.239-8.065.793,0,1.19.594,1.19,1.823,0,3.032-2.1,7.312-2.1,7.312,0,.792.594,2.061,1.744,2.061.813,0,1.367-.792,1.744-1.308.139-.2.238-.337.4-.337a.463.463,0,0,1,.4.4.746.746,0,0,1-.2.456c-.5.693-1.229,1.764-2.378,1.764-1.506,0-3.032-1.269-3.032-4.1m1.129-.4a19.588,19.588,0,0,0,1.308-5.965c0-.278-.08-.5-.238-.5-.416,0-1.07,2.576-1.07,6.46" transform="translate(-132.015 -27.737)" fill="#fff"/>
    <path id="Path_250" data-name="Path 250" d="M363.1,85.339a.594.594,0,0,1,.594-.634c.535,0,.813.575,1.308.575.456,0,.793-.4,1.17-.912.138-.2.237-.337.4-.337a.463.463,0,0,1,.4.4.748.748,0,0,1-.2.456,2.4,2.4,0,0,1-1.545,1.15,6.18,6.18,0,0,1,.237,1.347c0,2.279-.99,3.8-2,3.8-1.11,0-1.823-1.15-1.823-3.27,0-1.823,0-4.082.1-5.826.218-4.023,1.089-7.57,2.676-7.57.813,0,1.169.654,1.169,1.982,0,3.23-2.755,6.618-2.755,6.618,0,1.268-.078,2.715-.078,4.5,0,2.061.356,2.616.792,2.616s.833-1.209.833-2.913c0-.852-.08-1.387-.595-1.387-.417,0-.674-.218-.674-.594m-.258-3.785a11.37,11.37,0,0,0,1.8-5.509c0-.357-.119-.516-.317-.516-.5,0-1.328,2.913-1.486,6.024" transform="translate(-134.721 -27.761)" fill="#fff"/>
    <path id="Path_251" data-name="Path 251" d="M368.9,86.915c0-2.22,1.506-4.122,2.774-4.122.912,0,1.249.436,1.249,1.209,0,1.645-1.744,3.309-2.5,3.824.119.674.634,1.09,1.585,1.09a3.051,3.051,0,0,0,2.319-1.466c.138-.2.237-.336.4-.336a.463.463,0,0,1,.4.4.745.745,0,0,1-.2.456,3.806,3.806,0,0,1-3.11,1.823,2.714,2.714,0,0,1-2.913-2.873m2.953-2.874c0-.238-.1-.337-.278-.337-.456,0-1.348,1.625-1.348,3.052a3.7,3.7,0,0,0,1.626-2.715" transform="translate(-137.426 -30.843)" fill="#fff"/>
    <path id="Path_252" data-name="Path 252" d="M380.98,86.968c0-1.03.494-2.18.494-2.714,0-.3-.118-.356-.494-.356a5.172,5.172,0,0,1-.794-.06,27.059,27.059,0,0,1-1.525,2.516c-.277.417-.5.753-.713.753a.339.339,0,0,1-.337-.356c0-.258.119-.436.4-.852.417-.614.951-1.486,1.387-2.3a1.8,1.8,0,0,1-1.229-1.546,1.608,1.608,0,0,1,1.545-1.724c.813,0,1.328.436,1.328,1.15a4.057,4.057,0,0,1-.4,1.387,7.049,7.049,0,0,0,.951.04c.693,0,1.169.218,1.169.713,0,1.03-.515,2.378-.515,3.25a.763.763,0,0,0,.793.851c.693,0,1.249-.673,1.625-1.188.138-.2.237-.337.4-.337a.463.463,0,0,1,.4.4.745.745,0,0,1-.2.456c-.494.693-1.288,1.7-2.4,1.7a1.788,1.788,0,0,1-1.882-1.784m-1.15-4.3a2.711,2.711,0,0,0,.218-.911c0-.3-.159-.456-.4-.456s-.456.258-.456.634c0,.317.218.555.634.733" transform="translate(-140.673 -29.925)" fill="#fff"/>
    <path id="Path_253" data-name="Path 253" d="M396.339,87.427c.139-.2.238-.337.4-.337a.463.463,0,0,1,.4.4.744.744,0,0,1-.2.456c-.5.693-1.229,1.764-2.3,1.764-1.7,0-1.764-2.339-1.764-2.339s-1.447,2.339-2.795,2.339c-.99,0-1.446-1.031-1.446-1.942,0-3.052,1.961-5.034,3.19-5.034a1.424,1.424,0,0,1,1.486,1.11c.02-.04.456-.813.971-.813.337,0,.494.257.494.574,0,.456-.752.833-.752,2.537,0,1.367.1,2.6.772,2.6.694,0,1.17-.792,1.546-1.308m-6.5.178c0,.634.119,1.129.615,1.129.594,0,2.2-2.378,2.2-2.616s-.277-.3-.277-.594.238-.476.238-.772c0-.694-.138-1.13-.654-1.13-.693,0-2.12,1.586-2.12,3.983" transform="translate(-144.778 -30.82)" fill="#fff"/>
    <path id="Path_254" data-name="Path 254" d="M405.752,90.395c-.2,3.627-1.882,5.866-3.646,5.866-1.249,0-1.982-.693-1.982-1.585,0-1.506,2.714-3.191,4.6-4.538,0-3.071-.139-2.933-.139-2.933s-1.525,2.517-3.051,2.517a1.409,1.409,0,0,1-1.367-1.585c0-2.992,2.339-5.311,3.9-5.311a1.721,1.721,0,0,1,1.447.634s.356-.456.654-.456a.611.611,0,0,1,.554.555c0,.376-.971,1.208-.971,2.061,0,.416.019,2,.019,3.725a13.279,13.279,0,0,0,1.844-1.882c.139-.2.238-.336.4-.336a.462.462,0,0,1,.4.4.75.75,0,0,1-.2.456,12.912,12.912,0,0,1-2.458,2.417m-1.07.792c-1.586,1.13-3.468,2.458-3.468,3.428,0,.456.376.713.931.713,1.15,0,2.3-1.506,2.537-4.142m-3.27-3.289c0,.4.119.813.416.813.892,0,2.913-2.953,2.913-3.745,0-.3-.258-.5-.258-.951,0-.2-.019-.337-.257-.337-1.169,0-2.814,2.279-2.814,4.221" transform="translate(-149.06 -30.855)" fill="#fff"/>
    <path id="Path_255" data-name="Path 255" d="M412.091,86.915c0-2.22,1.506-4.122,2.774-4.122.912,0,1.249.436,1.249,1.209,0,1.645-1.744,3.309-2.5,3.824.119.674.634,1.09,1.585,1.09a3.051,3.051,0,0,0,2.319-1.466c.138-.2.237-.336.4-.336a.463.463,0,0,1,.4.4.745.745,0,0,1-.2.456A3.806,3.806,0,0,1,415,89.789a2.714,2.714,0,0,1-2.913-2.873m2.953-2.874c0-.238-.1-.337-.278-.337-.456,0-1.348,1.625-1.348,3.052a3.7,3.7,0,0,0,1.626-2.715" transform="translate(-153.518 -30.843)" fill="#fff"/>
  </g>
</svg>
