<svg xmlns="http://www.w3.org/2000/svg" width="32" height="32" viewBox="0 0 32 32">
  <path id="image-regular" d="M28,35.429a1.082,1.082,0,0,1,1,1.143V59.414l-.312-.464-8.5-12.571a1.394,1.394,0,0,0-2.375,0L12.625,54.05,10.719,51a1.394,1.394,0,0,0-2.437.007l-5,8L3,59.45V36.571a1.082,1.082,0,0,1,1-1.143ZM4,32a4.318,4.318,0,0,0-4,4.571V59.429A4.318,4.318,0,0,0,4,64H28a4.318,4.318,0,0,0,4-4.571V36.571A4.318,4.318,0,0,0,28,32ZM9,45.714a3.459,3.459,0,0,0,0-6.857,3.459,3.459,0,0,0,0,6.857Z" transform="translate(0 -32)" fill="#7e7e7e"/>
</svg>
