<svg id="Component_59_1" data-name="Component 59 – 1" xmlns="http://www.w3.org/2000/svg" xmlns:xlink="http://www.w3.org/1999/xlink" width="179.927" height="156.863" viewBox="0 0 179.927 156.863">
  <defs>
    <clipPath id="clip-path">
      <rect id="Rectangle_767" data-name="Rectangle 767" width="179.927" height="156.863" fill="none"/>
    </clipPath>
  </defs>
  <rect id="Rectangle_766" data-name="Rectangle 766" width="109.52" height="156.863" transform="translate(36.639)" fill="#ededed"/>
  <g id="Group_908" data-name="Group 908">
    <g id="Group_907" data-name="Group 907" clip-path="url(#clip-path)">
      <path id="Path_775" data-name="Path 775" d="M150.846,29.791V10.9a2.532,2.532,0,0,1,2.531-2.532h17.134a1.019,1.019,0,0,1,1.019,1.019V31.3a1.018,1.018,0,0,1-1.019,1.018H153.377a2.531,2.531,0,0,1-2.531-2.531" fill="#91582b"/>
      <path id="Path_776" data-name="Path 776" d="M152.925,28.337V12.352a2.2,2.2,0,0,1,2.2-2.2h13.451a1,1,0,0,1,1,1V29.536a1,1,0,0,1-1,1H155.124a2.2,2.2,0,0,1-2.2-2.2" fill="#e84c3d"/>
      <path id="Path_777" data-name="Path 777" d="M170.6,12.437V9.782l6.977-2.852V9.585Z" fill="#91582b"/>
      <path id="Path_778" data-name="Path 778" d="M170.6,28.252v2.655l6.977,2.852V31.1Z" fill="#91582b"/>
      <path id="Path_779" data-name="Path 779" d="M175.667,32.979V7.708A1.936,1.936,0,0,1,177.6,5.772h.388a1.936,1.936,0,0,1,1.936,1.936V32.979a1.936,1.936,0,0,1-1.936,1.936H177.6a1.936,1.936,0,0,1-1.936-1.936" fill="#a76531"/>
      <path id="Path_780" data-name="Path 780" d="M150.846,84.895V66a2.531,2.531,0,0,1,2.531-2.532h17.134a1.019,1.019,0,0,1,1.019,1.019V86.408a1.019,1.019,0,0,1-1.019,1.018H153.377a2.531,2.531,0,0,1-2.531-2.531" fill="#91582b"/>
      <path id="Path_781" data-name="Path 781" d="M152.925,83.441V67.456a2.2,2.2,0,0,1,2.2-2.2h13.451a1,1,0,0,1,1,1V84.64a1,1,0,0,1-1,1H155.124a2.2,2.2,0,0,1-2.2-2.2" fill="#e84c3d"/>
      <path id="Path_782" data-name="Path 782" d="M170.6,67.541V64.886l6.977-2.852v2.655Z" fill="#91582b"/>
      <path id="Path_783" data-name="Path 783" d="M170.6,83.356v2.655l6.977,2.852V86.208Z" fill="#91582b"/>
      <path id="Path_784" data-name="Path 784" d="M175.667,88.084V62.813a1.936,1.936,0,0,1,1.936-1.936h.388a1.936,1.936,0,0,1,1.936,1.936V88.084a1.936,1.936,0,0,1-1.936,1.936H177.6a1.936,1.936,0,0,1-1.936-1.936" fill="#a76531"/>
      <path id="Path_785" data-name="Path 785" d="M150.846,140V121.107a2.532,2.532,0,0,1,2.531-2.532h17.134a1.019,1.019,0,0,1,1.019,1.019v21.919a1.019,1.019,0,0,1-1.019,1.018H153.377A2.531,2.531,0,0,1,150.846,140" fill="#91582b"/>
      <path id="Path_786" data-name="Path 786" d="M152.925,138.546V122.561a2.2,2.2,0,0,1,2.2-2.2h13.451a1,1,0,0,1,1,1v18.383a1,1,0,0,1-1,1H155.124a2.2,2.2,0,0,1-2.2-2.2" fill="#e84c3d"/>
      <path id="Path_787" data-name="Path 787" d="M170.6,122.646v-2.655l6.977-2.852v2.655Z" fill="#91582b"/>
      <path id="Path_788" data-name="Path 788" d="M170.6,138.461v2.655l6.977,2.852v-2.655Z" fill="#91582b"/>
      <path id="Path_789" data-name="Path 789" d="M175.667,143.189V117.918a1.936,1.936,0,0,1,1.936-1.936h.388a1.936,1.936,0,0,1,1.936,1.936v25.271a1.936,1.936,0,0,1-1.936,1.936H177.6a1.936,1.936,0,0,1-1.936-1.936" fill="#a76531"/>
      <path id="Path_790" data-name="Path 790" d="M29.081,29.791V10.9A2.532,2.532,0,0,0,26.55,8.366H9.416A1.019,1.019,0,0,0,8.4,9.385V31.3a1.019,1.019,0,0,0,1.019,1.018H26.55a2.531,2.531,0,0,0,2.531-2.531" fill="#91582b"/>
      <path id="Path_791" data-name="Path 791" d="M27,28.337V12.352a2.2,2.2,0,0,0-2.2-2.2H11.352a1,1,0,0,0-1,1V29.536a1,1,0,0,0,1,1H24.8a2.2,2.2,0,0,0,2.2-2.2" fill="#e84c3d"/>
      <path id="Path_792" data-name="Path 792" d="M9.323,12.437V9.782L2.346,6.93V9.585Z" fill="#91582b"/>
      <path id="Path_793" data-name="Path 793" d="M9.323,28.252v2.655L2.346,33.759V31.1Z" fill="#91582b"/>
      <path id="Path_794" data-name="Path 794" d="M4.26,32.979V7.709A1.936,1.936,0,0,0,2.324,5.773H1.936A1.936,1.936,0,0,0,0,7.709v25.27a1.935,1.935,0,0,0,1.936,1.936h.388A1.936,1.936,0,0,0,4.26,32.979" fill="#a76531"/>
      <path id="Path_795" data-name="Path 795" d="M29.081,84.895V66A2.532,2.532,0,0,0,26.55,63.47H9.416A1.019,1.019,0,0,0,8.4,64.489V86.408a1.019,1.019,0,0,0,1.019,1.018H26.55a2.531,2.531,0,0,0,2.531-2.531" fill="#91582b"/>
      <path id="Path_796" data-name="Path 796" d="M27,83.441V67.456a2.2,2.2,0,0,0-2.2-2.2H11.352a1,1,0,0,0-1,1V84.64a1,1,0,0,0,1,1H24.8a2.2,2.2,0,0,0,2.2-2.2" fill="#e84c3d"/>
      <path id="Path_797" data-name="Path 797" d="M9.323,67.541V64.886L2.346,62.034v2.655Z" fill="#91582b"/>
      <path id="Path_798" data-name="Path 798" d="M9.323,83.356v2.655L2.346,88.863V86.208Z" fill="#91582b"/>
      <path id="Path_799" data-name="Path 799" d="M4.26,88.084V62.814a1.936,1.936,0,0,0-1.936-1.936H1.936A1.936,1.936,0,0,0,0,62.814V88.085A1.935,1.935,0,0,0,1.936,90.02h.388A1.936,1.936,0,0,0,4.26,88.084" fill="#a76531"/>
      <path id="Path_800" data-name="Path 800" d="M29.081,140V121.107a2.532,2.532,0,0,0-2.531-2.532H9.416A1.019,1.019,0,0,0,8.4,119.594v21.919a1.019,1.019,0,0,0,1.019,1.018H26.55A2.531,2.531,0,0,0,29.081,140" fill="#91582b"/>
      <path id="Path_801" data-name="Path 801" d="M27,138.546V122.561a2.2,2.2,0,0,0-2.2-2.2H11.352a1,1,0,0,0-1,1v18.383a1,1,0,0,0,1,1H24.8a2.2,2.2,0,0,0,2.2-2.2" fill="#e84c3d"/>
      <path id="Path_802" data-name="Path 802" d="M9.323,122.646v-2.655l-6.977-2.852v2.655Z" fill="#91582b"/>
      <path id="Path_803" data-name="Path 803" d="M9.323,138.461v2.655l-6.977,2.852v-2.655Z" fill="#91582b"/>
      <path id="Path_804" data-name="Path 804" d="M4.26,143.188v-25.27a1.936,1.936,0,0,0-1.936-1.936H1.936A1.936,1.936,0,0,0,0,117.918v25.271a1.935,1.935,0,0,0,1.936,1.935h.388a1.936,1.936,0,0,0,1.936-1.936" fill="#a76531"/>
    </g>
  </g>
</svg>
