<svg id="Component_56_16" data-name="Component 56 – 16" xmlns="http://www.w3.org/2000/svg" xmlns:xlink="http://www.w3.org/1999/xlink" width="169.296" height="100.694" viewBox="0 0 169.296 100.694">
  <defs>
    <clipPath id="clip-path">
      <rect id="Rectangle_771" data-name="Rectangle 771" width="169.296" height="100.694" fill="none"/>
    </clipPath>
  </defs>
  <g id="Group_914" data-name="Group 914" clip-path="url(#clip-path)">
    <path id="Path_867" data-name="Path 867" d="M29.6,39.574,29.15,58.462a2.532,2.532,0,0,1-2.592,2.47L9.429,60.52a1.02,1.02,0,0,1-.994-1.043l.527-21.913a1.02,1.02,0,0,1,1.043-.994l17.129.412a2.532,2.532,0,0,1,2.47,2.592" fill="#91582b"/>
    <path id="Path_868" data-name="Path 868" d="M27.491,40.977l-.384,15.981A2.2,2.2,0,0,1,24.855,59.1L11.409,58.78a1,1,0,0,1-.976-1.024l.442-18.378A1,1,0,0,1,11.9,38.4l13.446.323a2.2,2.2,0,0,1,2.146,2.252" fill="#e84c3d"/>
    <path id="Path_869" data-name="Path 869" d="M9.435,56.448,9.371,59.1,2.328,61.785l.063-2.654Z" fill="#91582b"/>
    <path id="Path_870" data-name="Path 870" d="M9.815,40.637l.064-2.654L2.972,34.964l-.063,2.654Z" fill="#91582b"/>
    <path id="Path_871" data-name="Path 871" d="M4.867,35.789,4.259,61.052a1.935,1.935,0,0,1-1.982,1.889l-.388-.009A1.937,1.937,0,0,1,0,60.95L.608,35.686A1.936,1.936,0,0,1,2.59,33.8l.388.009a1.936,1.936,0,0,1,1.889,1.982" fill="#a76531"/>
    <path id="Path_872" data-name="Path 872" d="M139.692,61.12l.454-18.888a2.531,2.531,0,0,1,2.592-2.469l17.129.411a1.02,1.02,0,0,1,.994,1.043l-.527,21.914a1.02,1.02,0,0,1-1.043.994l-17.129-.412a2.532,2.532,0,0,1-2.47-2.593" fill="#91582b"/>
    <path id="Path_873" data-name="Path 873" d="M141.8,59.717l.384-15.981a2.2,2.2,0,0,1,2.252-2.145l13.446.323a1,1,0,0,1,.976,1.024l-.442,18.378a1,1,0,0,1-1.024.976l-13.446-.323a2.2,2.2,0,0,1-2.146-2.252" fill="#e84c3d"/>
    <path id="Path_874" data-name="Path 874" d="M159.861,44.246l.064-2.654,7.043-2.683-.063,2.654Z" fill="#91582b"/>
    <path id="Path_875" data-name="Path 875" d="M159.481,60.057l-.064,2.654,6.907,3.019.063-2.654Z" fill="#91582b"/>
    <path id="Path_876" data-name="Path 876" d="M164.429,64.9l.608-25.263a1.935,1.935,0,0,1,1.982-1.889l.388.009a1.937,1.937,0,0,1,1.889,1.982l-.608,25.263a1.936,1.936,0,0,1-1.982,1.889l-.388-.009a1.936,1.936,0,0,1-1.889-1.982" fill="#a76531"/>
    <path id="Path_877" data-name="Path 877" d="M134.995,50.347A50.347,50.347,0,1,1,84.648,0a50.347,50.347,0,0,1,50.347,50.347" fill="#ededed"/>
  </g>
</svg>
