<?xml version="1.0" encoding="UTF-8"?>
<svg id="Layer_2" data-name="Layer 2" xmlns="http://www.w3.org/2000/svg" viewBox="0 0 546.15 124.19">
  <defs>
    <style>
      .cls-1 {
        fill: #fff;
      }

      .cls-2 {
        fill: #131044;
      }

      .cls-3 {
        fill: #f36e37;
      }

      .cls-4 {
        fill: #f9c050;
      }

      .cls-5 {
        fill: #231f20;
      }
    </style>
  </defs>
  <g id="Layer_3" data-name="Layer 3">
    <path class="cls-2" d="m57.07,2.38c2.49,0,4.08,1.47,4.08,3.74s-1.59,3.85-4.08,3.85H8.27v27.85h40.54c2.49,0,4.08,1.47,4.08,3.85s-1.58,3.74-4.08,3.74H8.27v28.99c0,2.83-1.59,4.53-4.19,4.53s-4.08-1.7-4.08-4.53V6.91C0,4.08,1.59,2.38,4.42,2.38h52.65Z"/>
    <path class="cls-2" d="m84.83,24.69c16.98,0,28.65,11.43,28.65,28.31s-11.66,28.31-28.65,28.31-28.54-11.55-28.54-28.31,11.66-28.31,28.54-28.31Zm0,49.59c12.34,0,20.72-8.61,20.72-21.29s-8.38-21.29-20.72-21.29-20.61,8.61-20.61,21.29,8.38,21.29,20.61,21.29Z"/>
    <path class="cls-2" d="m151.78,24.69c16.98,0,28.65,11.43,28.65,28.31s-11.66,28.31-28.65,28.31-28.54-11.55-28.54-28.31,11.66-28.31,28.54-28.31Zm0,49.59c12.34,0,20.72-8.61,20.72-21.29s-8.38-21.29-20.72-21.29-20.61,8.61-20.61,21.29,8.38,21.29,20.61,21.29Z"/>
    <path class="cls-2" d="m247.16,4.19v72.24c0,2.6-1.36,4.19-3.85,4.19s-3.96-1.58-3.96-4.19v-5.32h-.23c-4.3,6.45-11.89,10.19-21.63,10.19-16.31,0-27.29-11.33-27.29-28.31s10.99-28.31,27.29-28.31c9.74,0,17.32,3.73,21.63,10.19h.23V4.19c0-2.72,1.48-4.19,3.96-4.19s3.85,1.47,3.85,4.19Zm-7.81,48.8c0-12.57-8.49-21.29-20.61-21.29s-20.61,8.61-20.61,21.29,8.38,21.29,20.61,21.29,20.61-8.61,20.61-21.29Z"/>
    <path class="cls-2" d="m324.89,71.56c-3.17,6.23-9.4,9.74-17.89,9.74-12.23,0-19.81-7.93-19.81-21.06V11.89c0-2.6,1.47-4.19,3.85-4.19s3.96,1.59,3.96,4.19v14.15h23.55c2.37,0,3.85,1.24,3.85,3.51,0,2.15-1.48,3.51-3.85,3.51h-23.55v27.29c0,8.94,4.64,13.93,12.45,13.93,5.44,0,9.06-2.38,11.21-6.57.57-1.13,1.7-1.92,3.17-1.92,2.04,0,3.51,1.59,3.51,3.73,0,.79-.23,1.59-.45,2.04Z"/>
    <path class="cls-2" d="m366.02,28.76c0,2.49-1.58,3.85-3.85,3.85-12.79,0-19.93,7.81-19.93,23.66v20.16c0,2.6-1.47,4.19-3.85,4.19s-3.96-1.58-3.96-4.19V29.55c0-2.72,1.47-4.19,3.96-4.19s3.85,1.47,3.85,4.19v6.11h.23c3.73-6.91,10.41-10.64,19.7-10.64,2.27,0,3.85,1.24,3.85,3.74Z"/>
    <path class="cls-2" d="m425.26,29.55v46.88c0,2.6-1.36,4.19-3.85,4.19s-3.96-1.58-3.96-4.19v-5.32h-.23c-4.3,6.45-11.89,10.19-21.63,10.19-16.31,0-27.29-11.33-27.29-28.31s10.99-28.31,27.29-28.31c9.74,0,17.32,3.73,21.63,10.19h.23v-5.32c0-2.72,1.48-4.19,3.96-4.19s3.85,1.47,3.85,4.19Zm-7.81,23.44c0-12.57-8.49-21.29-20.61-21.29s-20.61,8.61-20.61,21.29,8.38,21.29,20.61,21.29,20.61-8.61,20.61-21.29Z"/>
    <path class="cls-2" d="m494.3,55.26c-.56,8.22-5.2,15.6-13.16,20.82-14.11,9.25-30.2,5.99-39.39-8.03-9.25-14.11-5.77-30.07,8.34-39.32,7.1-4.66,14.71-6.26,22.52-4.48,1,.29,1.63.83,2.12,1.59,1.24,1.89.82,3.93-.98,5.11-1.04.68-2.11.7-3.36.45-5.3-1.27-11.15-.27-16.45,3.2-10.23,6.71-12.51,18.5-5.56,29.1,6.95,10.61,18.68,13.21,28.91,6.5,5.96-3.91,9.21-9.29,9.73-15.72.1-.88.7-1.82,1.65-2.44,1.8-1.18,3.84-.75,5.02,1.04.43.66.62,1.36.61,2.17Z"/>
    <path class="cls-2" d="m540.68,54.87c2.11-1.09,4.04-.56,5.03,1.35s.31,3.79-1.81,4.88l-37.81,19.57c-2.42,1.25-4.55.57-5.59-1.44-.68-1.31-.59-2.63-.16-4.25l14.47-51.61-29.16,15.09c-2.11,1.09-4.04.56-5.03-1.35-1.04-2.01-.31-3.8,1.8-4.89l35.8-18.53c2.42-1.25,4.5-.67,5.44,1.14.83,1.61.64,2.73.11,4.4l-14.27,51.76,31.17-16.13Z"/>
    <circle class="cls-3" cx="85.27" cy="52.81" r="25.59"/>
    <circle class="cls-4" cx="151.84" cy="53.19" r="25.21"/>
    <path class="cls-5" d="m40.35,109.22c-1.31,1.56-3.19,2.39-5.37,2.39-1.99,0-3.63-.76-4.82-1.89-1.27.98-2.54,1.52-3.7,1.52-1.31,0-2.25-.8-2.25-1.63s.62-1.23,1.16-1.23.87.47.87.8.15.54.54.54c.73,0,1.56-.4,2.47-1.05-.65-.94-1.02-1.96-1.02-2.9,0-1.99,1.31-2.94,2.5-2.94.91,0,1.92.36,2.94.87,1.6-2.28,3.08-4.97,4.21-7.43-.87-1.92-1.63-3.73-1.63-5.33,0-2.76,1.59-3.99,3.08-3.99s2.43,1.09,2.43,2.47c0,1.49-.73,3.84-1.89,6.49,1.09,2.43,2.28,5.08,2.28,7.61,0,1.81-.4,3.34-1.05,4.57.47.14.94.22,1.38.22,1.27,0,1.85-.36,2.54-1.31.25-.36.44-.62.73-.62.33,0,.73.4.73.73,0,.29-.11.47-.36.83-.91,1.27-2.14,1.7-3.55,1.7-.73,0-1.45-.15-2.21-.44Zm-7.54-4.31c-.65-.36-1.23-.62-1.67-.62-.62,0-1.16.51-1.16,1.45,0,.58.22,1.2.58,1.81.73-.76,1.52-1.67,2.25-2.65Zm-1.38,3.73c.91.87,2.18,1.49,3.7,1.49s2.65-.58,3.48-1.63c-1.56-.83-3.12-1.96-4.46-2.83-.87,1.12-1.81,2.14-2.72,2.97Zm7.9-1.34c.51-1.05.76-2.36.76-3.88,0-1.67-.62-3.41-1.34-5.15-1.05,2.1-2.36,4.28-3.73,6.24,1.45.91,2.9,1.99,4.31,2.79Zm-.36-13.52c.65-1.78,1.09-3.3,1.09-4.31,0-.58-.22-1.02-.73-1.02s-1.16.62-1.16,2.14c0,.94.33,1.99.8,3.19Z"/>
    <path class="cls-5" d="m44.77,105.45c0-1.81.22-4.68.54-7.29h-1.31c-.54,0-.65-.22-.65-.54s.44-1.23.91-1.23c.29,0,.76,0,1.27.04.18-1.27.36-2.43.58-3.3.22-1.02.44-1.38.83-1.38.69,0,1.89.76,1.89,1.6,0,.29-.47.98-.76,1.96l-.33,1.16h1.27c1.89,0,1.81-.36,2.21-.36s1.02.73,1.02,1.2-1.45.83-3.23.83h-1.56c-.25,1.74-.44,4.02-.44,7.11,0,3.92.91,4.46,2.14,4.46s2.43-1.74,3.12-2.68c.25-.36.43-.62.72-.62.33,0,.73.4.73.73,0,.29-.11.47-.36.83-.91,1.27-2.43,3.37-4.79,3.37-2.18,0-3.81-1.34-3.81-5.87Z"/>
    <path class="cls-5" d="m58.51,107.8c0-1.89.91-3.99.91-4.97,0-.54-.22-.65-.91-.65-.51,0-.98-.04-1.45-.11-.87,1.67-1.96,3.37-2.79,4.6-.51.76-.91,1.38-1.31,1.38-.33,0-.62-.25-.62-.65,0-.47.22-.8.73-1.56.76-1.12,1.74-2.72,2.54-4.21-1.34-.62-2.25-1.6-2.25-2.83,0-1.85,1.27-3.15,2.83-3.15s2.43.8,2.43,2.1c0,.62-.29,1.52-.73,2.54.51.07,1.09.07,1.74.07,1.27,0,2.14.4,2.14,1.31,0,1.89-.94,4.35-.94,5.95,0,.8.4,1.56,1.45,1.56,1.27,0,2.28-1.23,2.97-2.18.25-.36.43-.62.72-.62.33,0,.73.4.73.73,0,.29-.11.47-.36.83-.91,1.27-2.36,3.12-4.39,3.12-1.92,0-3.44-1.34-3.44-3.26Zm-2.1-7.87c.25-.65.4-1.23.4-1.67,0-.54-.29-.83-.73-.83s-.83.47-.83,1.16c0,.58.4,1.02,1.16,1.34Z"/>
    <path class="cls-5" d="m65.29,106.03c0-4.06,2.76-7.54,5.08-7.54,1.67,0,2.28.8,2.28,2.21,0,3.01-3.19,6.05-4.57,7,.22,1.23,1.16,1.99,2.9,1.99,2.14,0,3.55-1.74,4.24-2.68.25-.36.44-.62.73-.62.33,0,.73.4.73.73,0,.29-.11.47-.36.83-.91,1.27-2.65,3.34-5.69,3.34s-5.33-1.92-5.33-5.26Zm5.4-5.26c0-.44-.18-.62-.51-.62-.83,0-2.47,2.97-2.47,5.58,1.09-.69,2.97-2.76,2.97-4.97Z"/>
    <path class="cls-5" d="m88.72,107c.25-.36.43-.62.72-.62.33,0,.73.4.73.73,0,.29-.11.47-.36.83-.91,1.27-2.25,3.23-4.21,3.23-3.12,0-3.23-4.28-3.23-4.28,0,0-2.65,4.28-5.11,4.28-1.81,0-2.65-1.89-2.65-3.55,0-5.58,3.59-9.21,5.84-9.21s2.68,1.89,2.72,2.03c.04-.07.83-1.49,1.78-1.49.62,0,.91.47.91,1.05,0,.83-1.38,1.52-1.38,4.64,0,2.5.18,4.75,1.41,4.75s2.14-1.45,2.83-2.39Zm-11.89.33c0,1.16.22,2.07,1.12,2.07,1.09,0,4.02-4.35,4.02-4.79s-.51-.54-.51-1.09.43-.87.43-1.41c0-1.27-.25-2.07-1.2-2.07-1.27,0-3.88,2.9-3.88,7.29Z"/>
    <path class="cls-5" d="m104.52,107.87c0-1.7.62-4.5.62-5.69,0-.58-.15-.98-.8-.98-1.6,0-4.46,5.33-4.46,7.65,0,.91-.69,1.31-1.38,1.31s-1.05-.54-1.05-1.45.8-5.26.8-6.67c0-1.09-.22-1.45-.94-1.45-1.78,0-4.97,4.64-5.51,7.11-.54,2.5-.69,3.77-1.74,3.77-.76,0-1.05-.47-1.05-1.45s.15-5.69.15-9.68c0-1.16.47-1.6,1.2-1.6,1.12,0,1.52.47,1.52,1.45s-.29,3.52-.33,3.73c.18-.29,3.15-5.37,6.34-5.37,2.18,0,2.57,1.63,2.57,3.05,0,.69-.15,1.74-.15,1.74,0,0,2.1-4.06,4.75-4.06,1.52,0,2.47.87,2.47,2.57s-.62,4.35-.62,5.76c0,1.23.4,1.78,1.23,1.78.91,0,1.96-1.45,2.65-2.39.25-.36.44-.62.73-.62.33,0,.73.4.73.73,0,.29-.11.47-.36.83-.91,1.27-2.25,3.23-4.21,3.23-2.07,0-3.15-1.45-3.15-3.3Z"/>
    <path class="cls-5" d="m110.69,103.67c0-10.88,2.28-14.76,4.1-14.76,1.45,0,2.17,1.09,2.17,3.34,0,5.55-3.84,13.38-3.84,13.38,0,1.45,1.09,3.77,3.19,3.77,1.49,0,2.5-1.45,3.19-2.39.25-.36.44-.62.73-.62.33,0,.73.4.73.73,0,.29-.11.47-.36.83-.91,1.27-2.25,3.23-4.35,3.23-2.76,0-5.55-2.32-5.55-7.5Zm2.07-.73s2.39-6.02,2.39-10.91c0-.51-.15-.91-.44-.91-.76,0-1.96,4.71-1.96,11.82Z"/>
    <path class="cls-5" d="m118.99,105.77c0-3.73.83-7.18,1.81-7.18.91,0,1.41.62,1.41,1.49s-1.09,2.25-1.09,5.22,1.05,4.24,2.14,4.24c1.27,0,2.65-1.6,3.34-2.54.25-.36.44-.62.73-.62.33,0,.73.4.73.73,0,.29-.11.47-.36.83-.91,1.27-2.61,3.52-4.46,3.52-2.47,0-4.24-1.96-4.24-5.69Zm4.86-12.22c0,1.12-1.12,1.85-1.99,1.85s-1.49-.69-1.49-1.45c0-1.12.65-2.07,1.67-2.07.91,0,1.81.54,1.81,1.67Z"/>
    <path class="cls-5" d="m134.58,108.02c0-2.36.98-5,.98-6.13,0-.54-.18-.73-.58-.73-1.45,0-5.18,5.22-6.02,7.4-.65,1.7-.94,2.39-1.74,2.39s-1.2-.51-1.2-1.27.47-7.9.47-9.17.11-1.85.91-1.85c.91,0,1.45.8,1.45,2.21s-.11,4.6-.11,4.68c.18-.33,3.84-6.63,7.25-6.63,1.12,0,2.07.83,2.07,2.03,0,2.25-1.27,5-1.27,7.03,0,1.23.51,1.63,1.49,1.63,1.27,0,2.61-1.67,3.3-2.61.25-.36.44-.62.73-.62.33,0,.73.4.73.73,0,.29-.11.47-.36.83-.91,1.27-2.72,3.48-4.86,3.48-1.85,0-3.23-1.41-3.23-3.41Z"/>
    <path class="cls-5" d="m141.25,106.03c0-4.06,2.76-7.54,5.08-7.54,1.67,0,2.28.8,2.28,2.21,0,3.01-3.19,6.05-4.57,7,.22,1.23,1.16,1.99,2.9,1.99,2.14,0,3.55-1.74,4.24-2.68.25-.36.44-.62.73-.62.33,0,.73.4.73.73,0,.29-.11.47-.36.83-.91,1.27-2.65,3.34-5.69,3.34s-5.33-1.92-5.33-5.26Zm5.4-5.26c0-.44-.18-.62-.51-.62-.83,0-2.47,2.97-2.47,5.58,1.09-.69,2.97-2.76,2.97-4.97Z"/>
    <path class="cls-5" d="m168.74,112.7c.22-1.7.36-3.48.36-5.33,0,0-2.72,3.73-5.4,3.73-2.5,0-3.05-2.07-3.05-4.39,0-1.63.62-5.33,1.27-7.18.25-.8.51-1.01,1.02-1.01.72,0,1.45.65,1.45,1.7s-1.45,3.37-1.45,6.38c0,1.49.43,2.36,1.38,2.36s3.19-1.74,4.31-4.02c.69-1.41,1.16-3.41,1.23-4.79.04-.87.4-1.38.91-1.38.8,0,1.56.76,1.56,1.89s-.73,3.05-.73,5.08c0,1.78-.11,3.52-.33,5.18,1.74-1.34,3.08-2.79,3.95-3.92.25-.36.44-.62.73-.62.33,0,.73.4.73.73,0,.29-.11.47-.36.83-1.05,1.41-2.68,3.08-5.33,5.04-1.09,6.38-3.59,11.2-6.67,11.2-1.99,0-3.7-1.52-3.7-3.23,0-2.9,4.02-5.47,8.12-8.27Zm-.33,2.18c-3.19,2.32-5.87,4.39-5.87,6.09,0,1.12.65,1.45,1.63,1.45,1.92,0,3.44-3.23,4.24-7.54Z"/>
    <path class="cls-5" d="m182.69,109.65c-.87.98-2.07,1.6-3.41,1.6-2.54,0-4.75-1.78-4.75-5,0-2.79,1.23-4.46,1.96-5.18.47-1.34,1.7-2.47,3.55-2.47,2.97,0,4.57,2.79,4.57,5.98,0,1.27-.36,2.57-.94,3.7h.44c.87,0,1.52-.33,2.21-1.27.25-.36.44-.62.73-.62.33,0,.72.4.72.73,0,.29-.11.47-.36.83-.91,1.27-1.99,1.78-3.63,1.78-.36,0-.73-.04-1.09-.07Zm-1.89-.58c-1.85-.87-3.41-2.43-4.1-4.39-.11.51-.18,1.02-.18,1.67,0,1.92,1.16,3.19,2.76,3.19.54,0,1.05-.18,1.52-.47Zm1.09-1.23c.47-.83.76-1.89.76-3.12,0-2.83-1.09-4.57-2.57-4.57-1.16,0-1.99.83-1.99,2.25,0,2.36,1.63,4.53,3.81,5.44Z"/>
    <path class="cls-5" d="m195.46,105.41c-1.41,2.18-3.92,5.69-6.27,5.69-1.34,0-2.54-1.02-2.54-3.08,0-2.72.62-5.37.98-7.69.18-1.12.4-1.6,1.02-1.6.73,0,1.45.8,1.45,2.03s-1.31,5-1.31,6.56c0,1.09.33,1.52,1.09,1.52s3.34-2.57,4.39-4.5c.69-1.23,1.49-3.05,1.96-4.57.36-1.16.58-1.56,1.12-1.56.8,0,1.41.76,1.41,1.7,0,1.12-1.31,2.94-1.31,4.57,0,2.18.44,4.89,1.74,4.89,1.2,0,2.25-1.45,2.94-2.39.25-.36.44-.62.73-.62.33,0,.73.4.73.73,0,.29-.11.47-.36.83-.91,1.27-2.36,3.12-4.31,3.12-2.54,0-3.3-2.61-3.44-5.66Z"/>
    <path class="cls-5" d="m208.36,107.8c0-1.89.91-3.99.91-4.97,0-.54-.22-.65-.91-.65-.51,0-.98-.04-1.45-.11-.87,1.67-1.96,3.37-2.79,4.6-.51.76-.91,1.38-1.31,1.38-.33,0-.62-.25-.62-.65,0-.47.22-.8.73-1.56.76-1.12,1.74-2.72,2.54-4.21-1.34-.62-2.25-1.6-2.25-2.83,0-1.85,1.27-3.15,2.83-3.15s2.43.8,2.43,2.1c0,.62-.29,1.52-.73,2.54.51.07,1.09.07,1.74.07,1.27,0,2.14.4,2.14,1.31,0,1.89-.94,4.35-.94,5.95,0,.8.4,1.56,1.45,1.56,1.27,0,2.28-1.23,2.97-2.18.25-.36.43-.62.72-.62.33,0,.73.4.73.73,0,.29-.11.47-.36.83-.91,1.27-2.36,3.12-4.39,3.12-1.92,0-3.44-1.34-3.44-3.26Zm-2.1-7.87c.25-.65.4-1.23.4-1.67,0-.54-.29-.83-.73-.83s-.83.47-.83,1.16c0,.58.4,1.02,1.16,1.34Z"/>
    <path class="cls-5" d="m228.78,107.51c-.73-.25-1.05-.51-1.05-1.05,0-.62.62-.94,1.31-.94.8,0,3.81-2.39,3.81-4.42,0-.4-.25-.62-.62-.62-1.49,0-3.99,3.48-4.86,5-.58,1.01-.69,2.28-.69,3.01,0,.62.11,1.2.11,1.52,0,.69-.65,1.09-1.3,1.09s-.87-.4-.87-1.34.29-5.95.29-9.28c0-8.41,1.23-11.38,3.55-11.38,1.49,0,2.43,1.12,2.43,2.97,0,4.97-4.06,10.77-4.06,10.77l-.11,1.2c.14-.25,3.15-5.26,6.13-5.26,1.23,0,2.1.83,2.1,2.25,0,2.5-3.12,4.89-4.53,5.55,0,0,1.45,2.25,3.37,2.25,1.34,0,2.03-.87,2.72-1.81.25-.36.43-.62.72-.62.33,0,.72.4.72.73,0,.29-.11.47-.36.83-.91,1.27-1.81,2.57-3.99,2.57s-3.88-1.67-4.82-3.01Zm-2.07-7.18s2.36-4.75,2.36-8.41c0-.62-.29-1.09-.69-1.09-1.6,0-1.67,8.77-1.67,9.5Z"/>
    <path class="cls-5" d="m236.72,105.77c0-3.73.83-7.18,1.81-7.18.91,0,1.41.62,1.41,1.49s-1.09,2.25-1.09,5.22,1.05,4.24,2.14,4.24c1.27,0,2.65-1.6,3.33-2.54.25-.36.44-.62.73-.62.33,0,.73.4.73.73,0,.29-.11.47-.36.83-.91,1.27-2.61,3.52-4.46,3.52-2.47,0-4.24-1.96-4.24-5.69Zm4.86-12.22c0,1.12-1.12,1.85-1.99,1.85s-1.49-.69-1.49-1.45c0-1.12.65-2.07,1.67-2.07.91,0,1.81.54,1.81,1.67Z"/>
    <path class="cls-5" d="m244.44,105.45c0-1.81.22-4.68.54-7.29h-1.31c-.54,0-.65-.22-.65-.54s.44-1.23.91-1.23c.29,0,.76,0,1.27.04.18-1.27.36-2.43.58-3.3.22-1.02.43-1.38.83-1.38.69,0,1.89.76,1.89,1.6,0,.29-.47.98-.76,1.96l-.33,1.16h1.27c1.88,0,1.81-.36,2.21-.36s1.02.73,1.02,1.2-1.45.83-3.23.83h-1.56c-.25,1.74-.43,4.02-.43,7.11,0,3.92.91,4.46,2.14,4.46s2.43-1.74,3.12-2.68c.25-.36.43-.62.72-.62.33,0,.73.4.73.73,0,.29-.11.47-.36.83-.91,1.27-2.43,3.37-4.79,3.37-2.18,0-3.81-1.34-3.81-5.87Z"/>
    <path class="cls-5" d="m261.4,107c.25-.36.43-.62.72-.62.33,0,.73.4.73.73,0,.29-.11.47-.36.83-.91,1.27-2.61,3.52-5.76,3.52-2.54,0-5.29-1.96-5.29-5.47,0-4.53,2.21-7.5,5.04-7.5,2.28,0,3.01,1.81,3.01,3.23,0,1.01-.51,1.63-1.27,1.63-.62,0-1.16-.47-1.16-.98s.36-.73.36-1.16-.29-1.05-.98-1.05c-1.09,0-2.83,2.18-2.83,5.84,0,2.61,1.38,3.84,3.52,3.84,2.28,0,3.59-1.89,4.28-2.83Z"/>
    <path class="cls-5" d="m270.03,107.84c0-1.67.29-4.71.29-5.55,0-.73-.14-1.02-.69-1.02-1.49,0-4.93,5.73-5.44,8.34-.43,2.28-.83,2.54-1.63,2.54-.58,0-.91-.54-.91-1.41,0-.22-.04-3.73-.04-6.96,0-7.11.54-15.77,4.21-15.77,1.41,0,2.5,1.02,2.5,3.23,0,5.37-4.6,14.07-4.6,14.07l-.07,1.41c.15-.36,3.59-7.54,6.63-7.54,1.63,0,2.32.91,2.32,2.57,0,2.25-.29,4.21-.29,5.58,0,1.23.47,2.07,1.56,2.07,1.56,0,2.57-1.45,3.26-2.39.25-.36.43-.62.72-.62.33,0,.73.4.73.73,0,.29-.11.47-.36.83-.91,1.27-2.25,3.23-4.71,3.23-2.32,0-3.48-1.52-3.48-3.34Zm-6.42-5.04s2.94-6.74,2.94-11.57c0-.8-.29-1.23-.8-1.23-1.45,0-2.14,7.29-2.14,12.8Z"/>
    <path class="cls-5" d="m276.09,106.03c0-4.06,2.75-7.54,5.08-7.54,1.67,0,2.28.8,2.28,2.21,0,3.01-3.19,6.05-4.57,7,.22,1.23,1.16,1.99,2.9,1.99,2.14,0,3.55-1.74,4.24-2.68.25-.36.43-.62.72-.62.33,0,.73.4.73.73,0,.29-.11.47-.36.83-.91,1.27-2.65,3.34-5.69,3.34s-5.33-1.92-5.33-5.26Zm5.4-5.26c0-.44-.18-.62-.51-.62-.83,0-2.46,2.97-2.46,5.58,1.09-.69,2.97-2.76,2.97-4.97Z"/>
    <path class="cls-5" d="m294.72,108.02c0-2.36.98-5,.98-6.13,0-.54-.18-.73-.58-.73-1.45,0-5.18,5.22-6.02,7.4-.65,1.7-.94,2.39-1.74,2.39s-1.2-.51-1.2-1.27.47-7.9.47-9.17.11-1.85.91-1.85c.91,0,1.45.8,1.45,2.21s-.11,4.6-.11,4.68c.18-.33,3.84-6.63,7.25-6.63,1.12,0,2.07.83,2.07,2.03,0,2.25-1.27,5-1.27,7.03,0,1.23.51,1.63,1.49,1.63,1.27,0,2.61-1.67,3.3-2.61.25-.36.43-.62.72-.62.33,0,.73.4.73.73,0,.29-.11.47-.36.83-.91,1.27-2.72,3.48-4.86,3.48-1.85,0-3.23-1.41-3.23-3.41Z"/>
    <path class="cls-5" d="m306.83,109.22c0,1.6-1.99,4.13-2.97,4.13-.54,0-.62-.36-.62-.73s1.05-.94,1.05-2.03c0-.69-.58-1.05-.58-1.67s.44-1.7,1.6-1.7c1.05,0,1.52.62,1.52,1.99Z"/>
    <path class="cls-5" d="m326.19,110.49c-1.12,1.05-2.54,1.7-4.13,1.7-2.18,0-3.41-.73-3.41-.73,0,6.02.36,6.92.36,8.16,0,.91-.62,1.41-1.41,1.41s-.98-.58-.98-2.21c0-2.25.14-8.3.29-12.73.11-3.34.29-5.84.29-6.16,0-.8.29-1.09.72-1.09.73,0,1.56.54,1.56,1.27s-.18,2.18-.4,3.63c-.22,1.45-.18,3.33-.18,3.33.87-1.99,4.68-8.05,7.03-8.05s3.01,2.14,3.01,3.95c0,2.18-.54,4.21-1.45,5.8h.33c1.63,0,3.04-.83,3.73-1.78.25-.36.44-.62.73-.62.33,0,.72.4.72.73,0,.29-.11.47-.36.83-.91,1.27-2.72,2.61-4.89,2.61-.54,0-1.05-.04-1.56-.07Zm-2.76-.58c-2.21-.62-3.81-1.49-3.81-1.49-.07.22-.11.44-.11.65.04.73.58,1.38,1.99,1.38.65,0,1.3-.18,1.92-.54Zm1.67-1.45c1.09-1.34,1.78-3.19,1.78-5.22,0-1.12-.33-1.99-1.2-1.99-1.34,0-4.93,5.37-4.93,5.66,0,.18,2.07,1.09,4.35,1.56Z"/>
    <path class="cls-5" d="m337.8,107.8c0-1.89.91-3.99.91-4.97,0-.54-.22-.65-.91-.65-.51,0-.98-.04-1.45-.11-.87,1.67-1.96,3.37-2.79,4.6-.51.76-.91,1.38-1.3,1.38-.33,0-.62-.25-.62-.65,0-.47.22-.8.72-1.56.76-1.12,1.74-2.72,2.54-4.21-1.34-.62-2.25-1.6-2.25-2.83,0-1.85,1.27-3.15,2.83-3.15s2.43.8,2.43,2.1c0,.62-.29,1.52-.72,2.54.51.07,1.09.07,1.74.07,1.27,0,2.14.4,2.14,1.31,0,1.89-.94,4.35-.94,5.95,0,.8.4,1.56,1.45,1.56,1.27,0,2.28-1.23,2.97-2.18.25-.36.44-.62.73-.62.33,0,.72.4.72.73,0,.29-.11.47-.36.83-.91,1.27-2.36,3.12-4.39,3.12-1.92,0-3.44-1.34-3.44-3.26Zm-2.1-7.87c.25-.65.4-1.23.4-1.67,0-.54-.29-.83-.72-.83s-.83.47-.83,1.16c0,.58.4,1.02,1.16,1.34Z"/>
    <path class="cls-5" d="m344.58,106.03c0-4.06,2.75-7.54,5.08-7.54,1.67,0,2.28.8,2.28,2.21,0,3.01-3.19,6.05-4.57,7,.22,1.23,1.16,1.99,2.9,1.99,2.14,0,3.55-1.74,4.24-2.68.25-.36.43-.62.72-.62.33,0,.73.4.73.73,0,.29-.11.47-.36.83-.91,1.27-2.65,3.34-5.69,3.34s-5.33-1.92-5.33-5.26Zm5.4-5.26c0-.44-.18-.62-.51-.62-.83,0-2.46,2.97-2.46,5.58,1.09-.69,2.97-2.76,2.97-4.97Z"/>
    <path class="cls-5" d="m360.67,107.77c-.58.98-2.94,3.66-3.81,3.66s-1.89-.65-1.89-1.92c0-5.26-.98-7.65-.98-9.53,0-.94.25-1.56,1.23-1.56.8,0,1.16.54,1.16,2.03,0,1.2.65,8.88.65,8.88.65-.47,2.25-2.47,2.86-3.88,0-3.88.98-6.53,2.54-6.53,1.23,0,1.74.62,1.74,1.56,0,1.96-2.54,5.8-2.54,5.8,0,0,1.09,1.89,3.34,1.89.76,0,1.34-.22,2.03-1.16.25-.36.43-.62.72-.62.33,0,.73.4.73.73,0,.29-.11.47-.36.83-.91,1.27-1.92,1.78-3.08,1.78-2.79,0-4.35-1.96-4.35-1.96Z"/>
    <path class="cls-5" d="m365.97,106.03c0-4.06,2.75-7.54,5.08-7.54,1.67,0,2.28.8,2.28,2.21,0,3.01-3.19,6.05-4.57,7,.22,1.23,1.16,1.99,2.9,1.99,2.14,0,3.55-1.74,4.24-2.68.25-.36.43-.62.72-.62.33,0,.73.4.73.73,0,.29-.11.47-.36.83-.91,1.27-2.65,3.34-5.69,3.34s-5.33-1.92-5.33-5.26Zm5.4-5.26c0-.44-.18-.62-.51-.62-.83,0-2.46,2.97-2.46,5.58,1.09-.69,2.97-2.76,2.97-4.97Z"/>
    <path class="cls-5" d="m384.6,108.02c0-2.36.98-5,.98-6.13,0-.54-.18-.73-.58-.73-1.45,0-5.18,5.22-6.02,7.4-.65,1.7-.94,2.39-1.74,2.39s-1.2-.51-1.2-1.27.47-7.9.47-9.17.11-1.85.91-1.85c.91,0,1.45.8,1.45,2.21s-.11,4.6-.11,4.68c.18-.33,3.84-6.63,7.25-6.63,1.12,0,2.07.83,2.07,2.03,0,2.25-1.27,5-1.27,7.03,0,1.23.51,1.63,1.49,1.63,1.27,0,2.61-1.67,3.3-2.61.25-.36.43-.62.72-.62.33,0,.73.4.73.73,0,.29-.11.47-.36.83-.91,1.27-2.72,3.48-4.86,3.48-1.85,0-3.23-1.41-3.23-3.41Z"/>
    <path class="cls-5" d="m391.71,105.45c0-1.81.22-4.68.54-7.29h-1.31c-.54,0-.65-.22-.65-.54s.43-1.23.91-1.23c.29,0,.76,0,1.27.04.18-1.27.36-2.43.58-3.3.22-1.02.44-1.38.83-1.38.69,0,1.89.76,1.89,1.6,0,.29-.47.98-.76,1.96l-.33,1.16h1.27c1.89,0,1.81-.36,2.21-.36s1.02.73,1.02,1.2-1.45.83-3.23.83h-1.56c-.25,1.74-.43,4.02-.43,7.11,0,3.92.91,4.46,2.14,4.46s2.43-1.74,3.12-2.68c.25-.36.43-.62.72-.62.33,0,.73.4.73.73,0,.29-.11.47-.36.83-.91,1.27-2.43,3.37-4.79,3.37-2.17,0-3.81-1.34-3.81-5.87Z"/>
    <path class="cls-5" d="m418.39,110.49c-1.12,1.05-2.54,1.7-4.13,1.7-2.18,0-3.41-.73-3.41-.73,0,6.02.36,6.92.36,8.16,0,.91-.62,1.41-1.41,1.41s-.98-.58-.98-2.21c0-2.25.14-8.3.29-12.73.11-3.34.29-5.84.29-6.16,0-.8.29-1.09.72-1.09.73,0,1.56.54,1.56,1.27s-.18,2.18-.4,3.63c-.22,1.45-.18,3.33-.18,3.33.87-1.99,4.68-8.05,7.03-8.05s3.01,2.14,3.01,3.95c0,2.18-.54,4.21-1.45,5.8h.33c1.63,0,3.04-.83,3.73-1.78.25-.36.44-.62.73-.62.33,0,.72.4.72.73,0,.29-.11.47-.36.83-.91,1.27-2.72,2.61-4.89,2.61-.54,0-1.05-.04-1.56-.07Zm-2.76-.58c-2.21-.62-3.81-1.49-3.81-1.49-.07.22-.11.44-.11.65.04.73.58,1.38,1.99,1.38.65,0,1.3-.18,1.92-.54Zm1.67-1.45c1.09-1.34,1.78-3.19,1.78-5.22,0-1.12-.33-1.99-1.2-1.99-1.34,0-4.93,5.37-4.93,5.66,0,.18,2.07,1.09,4.35,1.56Z"/>
    <path class="cls-5" d="m423.62,105.77c0-3.73.83-7.18,1.81-7.18.91,0,1.41.62,1.41,1.49s-1.09,2.25-1.09,5.22,1.05,4.24,2.14,4.24c1.27,0,2.65-1.6,3.33-2.54.25-.36.44-.62.73-.62.33,0,.73.4.73.73,0,.29-.11.47-.36.83-.91,1.27-2.61,3.52-4.46,3.52-2.47,0-4.24-1.96-4.24-5.69Zm4.86-12.22c0,1.12-1.12,1.85-1.99,1.85s-1.49-.69-1.49-1.45c0-1.12.65-2.07,1.67-2.07.91,0,1.81.54,1.81,1.67Z"/>
    <path class="cls-5" d="m431.12,103.67c0-10.88,2.28-14.76,4.1-14.76,1.45,0,2.18,1.09,2.18,3.34,0,5.55-3.84,13.38-3.84,13.38,0,1.45,1.09,3.77,3.19,3.77,1.49,0,2.5-1.45,3.19-2.39.25-.36.44-.62.73-.62.33,0,.73.4.73.73,0,.29-.11.47-.36.83-.91,1.27-2.25,3.23-4.35,3.23-2.75,0-5.55-2.32-5.55-7.5Zm2.07-.73s2.39-6.02,2.39-10.91c0-.51-.15-.91-.44-.91-.76,0-1.96,4.71-1.96,11.82Z"/>
    <path class="cls-5" d="m442.14,108.78c0-.69.47-1.16,1.09-1.16.98,0,1.49,1.05,2.39,1.05.83,0,1.45-.73,2.14-1.67.25-.36.44-.62.72-.62.33,0,.73.4.73.73,0,.29-.11.47-.36.83-.76,1.05-1.49,1.85-2.83,2.1,0,0,.44,1.49.44,2.47,0,4.17-1.81,6.96-3.66,6.96-2.03,0-3.34-2.1-3.34-5.98,0-3.34,0-7.47.18-10.66.4-7.36,1.99-13.85,4.89-13.85,1.49,0,2.14,1.2,2.14,3.63,0,5.91-5.04,12.11-5.04,12.11,0,2.32-.15,4.97-.15,8.23,0,3.77.65,4.79,1.45,4.79s1.52-2.21,1.52-5.33c0-1.56-.15-2.54-1.09-2.54-.76,0-1.23-.4-1.23-1.09Zm-.47-6.92s3.3-4.89,3.3-10.08c0-.65-.22-.94-.58-.94-.91,0-2.43,5.33-2.72,11.02Z"/>
    <path class="cls-5" d="m447.8,106.03c0-4.06,2.75-7.54,5.08-7.54,1.67,0,2.28.8,2.28,2.21,0,3.01-3.19,6.05-4.57,7,.22,1.23,1.16,1.99,2.9,1.99,2.14,0,3.55-1.74,4.24-2.68.25-.36.43-.62.72-.62.33,0,.73.4.73.73,0,.29-.11.47-.36.83-.91,1.27-2.65,3.34-5.69,3.34s-5.33-1.92-5.33-5.26Zm5.4-5.26c0-.44-.18-.62-.51-.62-.83,0-2.47,2.97-2.47,5.58,1.09-.69,2.97-2.76,2.97-4.97Z"/>
    <path class="cls-5" d="m463.97,107.8c0-1.89.91-3.99.91-4.97,0-.54-.22-.65-.91-.65-.51,0-.98-.04-1.45-.11-.87,1.67-1.96,3.37-2.79,4.6-.51.76-.91,1.38-1.3,1.38-.33,0-.62-.25-.62-.65,0-.47.22-.8.72-1.56.76-1.12,1.74-2.72,2.54-4.21-1.34-.62-2.25-1.6-2.25-2.83,0-1.85,1.27-3.15,2.83-3.15s2.43.8,2.43,2.1c0,.62-.29,1.52-.72,2.54.51.07,1.09.07,1.74.07,1.27,0,2.14.4,2.14,1.31,0,1.89-.94,4.35-.94,5.95,0,.8.4,1.56,1.45,1.56,1.27,0,2.28-1.23,2.97-2.18.25-.36.44-.62.73-.62.33,0,.72.4.72.73,0,.29-.11.47-.36.83-.91,1.27-2.36,3.12-4.39,3.12-1.92,0-3.44-1.34-3.44-3.26Zm-2.1-7.87c.25-.65.4-1.23.4-1.67,0-.54-.29-.83-.72-.83s-.83.47-.83,1.16c0,.58.4,1.02,1.16,1.34Z"/>
    <path class="cls-5" d="m484.56,107c.25-.36.44-.62.73-.62.33,0,.72.4.72.73,0,.29-.11.47-.36.83-.91,1.27-2.25,3.23-4.21,3.23-3.12,0-3.23-4.28-3.23-4.28,0,0-2.65,4.28-5.11,4.28-1.81,0-2.65-1.89-2.65-3.55,0-5.58,3.59-9.21,5.84-9.21s2.68,1.89,2.72,2.03c.04-.07.83-1.49,1.78-1.49.62,0,.91.47.91,1.05,0,.83-1.38,1.52-1.38,4.64,0,2.5.18,4.75,1.41,4.75s2.14-1.45,2.83-2.39Zm-11.89.33c0,1.16.22,2.07,1.12,2.07,1.09,0,4.02-4.35,4.02-4.79s-.51-.54-.51-1.09.44-.87.44-1.41c0-1.27-.25-2.07-1.2-2.07-1.27,0-3.88,2.9-3.88,7.29Z"/>
    <path class="cls-5" d="m493.95,112.37c-.36,6.63-3.44,10.73-6.67,10.73-2.28,0-3.62-1.27-3.62-2.9,0-2.76,4.97-5.84,8.41-8.3,0-5.62-.25-5.37-.25-5.37,0,0-2.79,4.6-5.58,4.6-1.49,0-2.5-1.16-2.5-2.9,0-5.47,4.28-9.72,7.14-9.72,1.88,0,2.65,1.16,2.65,1.16,0,0,.65-.83,1.2-.83.4,0,1.01.44,1.01,1.02,0,.69-1.78,2.21-1.78,3.77,0,.76.04,3.66.04,6.82,1.45-1.23,2.61-2.47,3.37-3.44.25-.36.44-.62.73-.62.33,0,.72.4.72.73,0,.29-.11.47-.36.83-.94,1.27-2.32,2.72-4.5,4.42Zm-1.96,1.45c-2.9,2.07-6.34,4.5-6.34,6.27,0,.83.69,1.31,1.7,1.31,2.1,0,4.21-2.76,4.64-7.58Zm-5.98-6.02c0,.72.22,1.49.76,1.49,1.63,0,5.33-5.4,5.33-6.85,0-.54-.47-.91-.47-1.74,0-.36-.04-.62-.47-.62-2.14,0-5.15,4.17-5.15,7.72Z"/>
    <path class="cls-5" d="m497.4,106.03c0-4.06,2.75-7.54,5.08-7.54,1.67,0,2.28.8,2.28,2.21,0,3.01-3.19,6.05-4.57,7,.22,1.23,1.16,1.99,2.9,1.99,2.14,0,3.55-1.74,4.24-2.68.25-.36.43-.62.72-.62.33,0,.73.4.73.73,0,.29-.11.47-.36.83-.91,1.27-2.65,3.34-5.69,3.34s-5.33-1.92-5.33-5.26Zm5.4-5.26c0-.44-.18-.62-.51-.62-.83,0-2.46,2.97-2.46,5.58,1.09-.69,2.97-2.76,2.97-4.97Z"/>
    <path class="cls-1" d="m67.26,70.59c.31-1.85,1.81-3.43,3.35-4.91,5.59-5.36,10.81-11.17,15.8-17.18,1.24-1.5.82-2.59.67-4.38-.19-2.27.35-4.46,1.49-6.39,1.24-2.11,3.04-3.76,4.96-5.16,1.25-.92,2.6-1.75,4.08-2.06s3.13-.04,4.25,1.04c1,.97,1.47,2.47,1.48,3.93s-.39,2.89-.89,4.25c-1.06,2.9-2.68,5.95-4.88,8.02-1.13,1.07-2.58,1.9-4.09,2.06-1.56.16-3.23-1.05-4.66-.18-.74.45-1.29,1.2-1.82,1.92-3.77,5.2-7.55,10.4-11.32,15.6-1,1.38-5.94,10.02-7.83,6.52-.6-1.11-.74-2.12-.58-3.06Z"/>
    <polygon class="cls-1" points="139.36 76.15 147.52 67.61 149.23 65.24 149.72 61.85 149.89 59.13 170.18 33.7 170.05 31.28 168.9 29.68 166.46 29.46 165.72 30.47 147.49 57.01 145.62 58.24 141.93 59.95 134.1 72.34 134.68 72.74 138.11 68.43 141.6 63.87 142.81 64.69 136.17 73.82 136.45 74.5 137.09 74.51 141.22 69.13 144.07 65.63 145.37 66.5 138.76 75.76 139.36 76.15"/>
  </g>
</svg>